<svg width="92px" height="24px" viewBox="0 0 216 54" version="1.1" xmlns="http://www.w3.org/2000/svg" xmlns:xlink="http://www.w3.org/1999/xlink">
                <g id="Page-1" stroke="none" stroke-width="1" fill="none" fill-rule="evenodd">
                    <g id="logo">
                        <path d="M197,1 C200.030333,0.557725694 203.197,0.336588542 206.5,0.336588542 C209.803,0.336588542 212.969667,0.557725694 216,1 L216,17 L197,17 L197,1 Z" id="Rectangle" fill="#D02D42"></path>
                        <path d="M197,38 C200.030333,37.5577257 203.197,37.3365885 206.5,37.3365885 C209.803,37.3365885 212.969667,37.5577257 216,38 L216,54 L197,54 L197,38 Z" id="Rectangle-Copy" fill="#D02D42" transform="translate(206.500000, 45.668294) scale(1, -1) translate(-206.500000, -45.668294) "></path>
                        <polygon id="Path-4" fill="#242265" points="128.896484 1.57421875 128.896484 52.9088542 146.908854 52.9088542 146.908854 33.2304688 153.723307 33.2304688 168.6875 52.9088542 191.01237 52.9088542 168.6875 25.6699219 189.997396 1.57421875 168.6875 1.57421875 153.723307 20.4895833 146.908854 20.4895833 146.908854 1.57421875"></polygon>
                        <path d="M65.1217448,1.34765625 L67.4824219,14.9394531 C75.5190972,14.3977865 82.187066,14.1269531 87.4863281,14.1269531 C92.7855903,14.1269531 98.0431858,14.3977865 103.259115,14.9394531 L104.167969,20.1803385 L80.421224,20.1803385 L80.421224,33.6920573 L104.167969,33.6920573 L103.259115,39.5722656 C98.7133247,39.9546441 93.2304688,40.1458333 86.8105469,40.1458333 C80.390625,40.1458333 73.9479167,39.9546441 67.4824219,39.5722656 L65.1217448,52.8098958 C74.688151,53.3307292 83.6330295,53.5911458 91.9563802,53.5911458 C100.279731,53.5911458 108.548828,53.3307292 116.763672,52.8098958 C119.809245,44.6082899 121.332031,36.1992187 121.332031,27.5826823 C121.332031,18.9661458 119.809245,10.2211372 116.763672,1.34765625 C110.422092,0.872395833 102.594618,0.634765625 93.28125,0.634765625 C83.9678819,0.634765625 74.5813802,0.872395833 65.1217448,1.34765625 Z" id="Path-3" fill="#242265"></path>
                        <polygon id="Path-2" fill="#242265" points="0.600911458 1.54622396 0.600911458 52.7226562 19.0091146 52.7226562 19.0091146 15.7154948 40.1601562 15.7154948 40.1601562 52.7226562 58.7434896 52.7226562 58.7434896 1.54622396"></polygon>
                    </g>
                </g>
            </svg>