<svg xmlns="http://www.w3.org/2000/svg"><symbol fill="none" id="sprite-auth" viewBox="0 0 16 20"><title>auth</title><path d="M11.157 4.664c0 2.283-1.422 4.492-3.157 4.492S4.844 6.97 4.844 4.664 6.265.835 8 .835s3.157 1.522 3.157 3.829zm3.951 14.531c-.12-4.933-1.373-7.609-3.228-9.057-.555-.442-1.302-.49-1.928-.172A4.253 4.253 0 018 10.457a4.263 4.263 0 01-1.952-.49 1.826 1.826 0 00-1.927.171c-1.856 1.448-3.109 4.124-3.23 9.057 0 .369.29.688.651.688h12.892a.68.68 0 00.675-.688z" fill="#C4D3E6"/></symbol><symbol fill="none" id="sprite-basket" viewBox="0 0 18 22"><title>basket</title><path d="M16.993 9.977h-.32a.316.316 0 01-.298-.25l-1.26-7.887c-.114-.659-.8-1.136-1.647-1.136h-9.5c-.824 0-1.534.5-1.648 1.136L1.038 9.75A.297.297 0 01.74 10H.35a.3.3 0 00-.297.34l1.74 9.432c.114.728.893 1.273 1.831 1.273h10.141c.939 0 1.717-.545 1.832-1.273l1.74-9.363a.351.351 0 00-.344-.432zm-5.677 5.59H9.233v2.069h-1.03v-2.068H6.12v-1.023h2.083v-2.068h1.03v2.068h2.083v1.023zm3.457-5.59H2.709a.288.288 0 01-.275-.318l1.053-6.614c.092-.523.664-.932 1.328-.932h7.737c.687 0 1.26.41 1.328.932l1.076 6.682c.068.136-.046.25-.183.25z" fill="#C4D3E6"/></symbol><symbol fill="none" id="sprite-burger" viewBox="0 0 9 10"><title>burger</title><path fill="#fff" d="M0 0h9v2H0zm0 4h9v2H0zm0 4h9v2H0z"/></symbol><symbol fill="none" id="sprite-copy" viewBox="0 0 18 21"><title>copy</title><path d="M.773 4.766v13.992c0 .74.552 1.338 1.238 1.338h11.46c.685 0 1.237-.597 1.237-1.338V4.766c0-.74-.552-1.337-1.237-1.337H1.99c-.685.02-1.218.617-1.218 1.337zm1.371-.103l11.098.02s.286.042.286.289v13.56c0 .206-.19.329-.419.329H1.992c-.038 0-.076-.062-.076-.103V4.766c0-.041.038-.103.095-.103h.133z" fill="#526584"/><path d="M16.555.096H5.075c-.685.02-1.218.617-1.218 1.337v.926H5v-.926c0-.041.038-.103.095-.103h.133l11.098.02s.286.042.286.289v13.56c0 .206-.19.329-.419.329h-.533v1.234h.876c.685 0 1.237-.596 1.237-1.337V1.433c.02-.74-.533-1.337-1.218-1.337z" fill="#526584"/></symbol><symbol fill="none" id="sprite-favorite" viewBox="0 0 16 21"><title>favorite</title><path d="M.517.467v20.065l7.26-5.213 7.315 5.213V.467H.518zM12.183 6.61l-1.94 1.917c-.055.056-.083.14-.055.197l.443 2.706c.028.197-.166.338-.332.253l-2.384-1.268c-.055-.028-.138-.028-.221 0L5.31 11.683c-.167.085-.36-.056-.333-.253l.443-2.706c0-.084 0-.169-.055-.197L3.426 6.61c-.138-.14-.055-.366.139-.394l2.66-.395c.083 0 .139-.056.166-.14l1.192-2.452a.234.234 0 01.416 0L9.19 5.68c.028.057.11.113.166.141l2.66.395c.222.028.305.254.167.394z" fill="#C4D3E6"/></symbol><symbol fill="none" id="sprite-footer-logo" viewBox="0 0 130 27"><title>footer-logo</title><path d="M21.51.022v17.874c0 1.644-1.31 2.979-2.925 2.979h-1.147c-1.615 0-2.926-1.335-2.926-2.98V.023H0v20.019C0 23.854 3.066 27 6.835 27h23.734c3.745 0 6.835-3.122 6.835-6.96V.023H21.51zm48.03.001l-5.15 12.488L59.242.023h-18.28v26.215H55.1V13.56l5.009 12.678h8.917l5.01-12.678v12.678h14.511V.023H69.54zm41.22 12.297v6.054h3.394c-.421 1.43-1.732 2.454-3.254 2.454h-.28c-1.873 0-3.418-1.572-3.418-3.479V9.628c0-1.907 1.545-3.48 3.418-3.48h.28c1.756 0 3.207 1.359 3.394 3.075H130V6.959C130 3.146 126.934 0 123.165 0H98.589c-3.745 0-6.835 3.122-6.835 6.959v13.06c0 3.812 3.066 6.958 6.835 6.958h24.576c3.745 0 6.835-3.122 6.835-6.959v-7.697h-19.24z" fill="#fff"/></symbol><symbol fill="none" id="sprite-header-logo" viewBox="0 0 136 18"><title>header-logo</title><path d="M24.22.053h9.727c.35 0 .594.428.35.723L21.059 17.813a.463.463 0 01-.351.187h-9.754c-.405 0-.567-.455-.351-.722l1.134-1.471L.091.749C-.125.455.064.027.442.027h9.727c.136 0 .27.053.352.16l6.646 8.586L23.841.187c.081-.053.19-.134.378-.134zm39.53 17.92c6.97 0 13.941-.026 20.912-.026.27 0 .54.026.73 0 .783-.054.135-.91-.162-1.445-.703-1.23-1.378-2.46-2.08-3.69-.136-.241-.136-.188-.433-.188h-5.782l4.134-7.088 7.106 12.197a.467.467 0 00.378.213h9.862a.455.455 0 00.405-.668L88.877.24a.503.503 0 00-.405-.24H73.665a.456.456 0 00-.378.214l-9.943 17.037c-.162.321.027.722.405.722zM54.805 5.43c.486 0 .918.375.891.91a.9.9 0 01-.891.91h-17.67a.471.471 0 00-.46.454v9.816c0 .24.19.454.46.454h9.97c.243 0 .46-.187.46-.454v-4.922h12.617c3.675 0 6.431-2.915 6.431-6.312 0-3.37-2.756-6.258-6.43-6.258H37.161c-.216 0-.46.214-.46.4v4.521c0 .267.217.455.46.455h17.644v.026zm46.068 12.544h9.835c.162 0 .324-.08.378-.214l7.133-12.196 7.107 12.196a.466.466 0 00.378.214h9.835a.455.455 0 00.405-.668L126.002.267a.503.503 0 00-.405-.24H110.79a.455.455 0 00-.378.214l-9.943 17.037c-.163.294.054.695.405.695z" fill="#fff"/></symbol><symbol fill="none" id="sprite-icon-slider-delivery" viewBox="0 0 96 46"><title>icon-slider-delivery</title><path d="M88.52 9.24a2.093 2.093 0 00-1.706-.9H73.806V2.768c0-1.154-.95-2.11-2.098-2.11H24.572c-1.147 0-2.098.956-2.098 2.11v34.109c0 1.154.95 2.11 2.098 2.11h5.93c1.091 3.828 4.616 6.67 8.756 6.67 4.14 0 7.665-2.814 8.756-6.67h23.247c1.09 3.828 4.615 6.67 8.756 6.67 4.14 0 7.665-2.814 8.755-6.67h4.337c1.146 0 2.098-.956 2.098-2.11V19.513c0-.45-.14-.873-.392-1.21L88.52 9.24zm2.518 10.892H81.64V12.59h4.112l5.287 7.542zM26.67 4.907h42.94v29.887h-21.4c-.811-4.25-4.504-7.458-8.952-7.458s-8.168 3.209-8.952 7.458H26.67V4.907zm12.588 36.529c-2.713 0-4.923-2.223-4.923-4.953 0-2.73 2.21-4.953 4.923-4.953 2.714 0 4.924 2.223 4.924 4.953 0 2.73-2.21 4.953-4.924 4.953zm40.786 0c-2.713 0-4.923-2.223-4.923-4.953 0-2.73 2.21-4.953 4.924-4.953 2.713 0 4.923 2.223 4.923 4.953 0 2.73-2.21 4.953-4.924 4.953zm8.952-6.642c-.811-4.25-4.504-7.458-8.951-7.458a9.038 9.038 0 00-6.239 2.505V12.59h3.609v9.653c0 1.153.951 2.11 2.098 2.11h11.553v10.441h-2.07zM2.305 4.903h14.966c1.147 0 2.098-.957 2.098-2.11 0-1.155-.95-2.111-2.098-2.111H2.305c-1.147 0-2.098.956-2.098 2.11s.951 2.111 2.098 2.111zM17.27 8.367H5.747c-1.147 0-2.099.957-2.099 2.11 0 1.155.952 2.112 2.099 2.112H17.27c1.147 0 2.098-.957 2.098-2.111a2.1 2.1 0 00-2.098-2.11zm.002 7.683H9.998c-1.146 0-2.098.958-2.098 2.111 0 1.154.952 2.111 2.098 2.111h7.274c1.147 0 2.098-.957 2.098-2.11a2.102 2.102 0 00-2.098-2.111zm-.001 7.684h-2.518c-1.147 0-2.098.957-2.098 2.111 0 1.154.951 2.11 2.098 2.11h2.518c1.147 0 2.098-.956 2.098-2.11s-.923-2.11-2.098-2.11z" fill="#fff"/></symbol><symbol fill="none" id="sprite-icon-slider-guarantee" viewBox="0 0 60 70"><title>icon-slider-guarantee</title><path d="M50.382 46.954c3.192-2.822 5.248-6.985 5.248-11.57 0-8.467-6.95-15.381-15.46-15.381-8.509 0-15.458 6.843-15.458 15.38 0 4.586 2.056 8.749 5.247 11.57l-8.793 17.639 7.162-2.117 2.766 7.055 9.077-18.273 9.077 18.273 2.765-7.055 7.163 2.117-8.794-17.638zm-10.211-19.26c4.255 0 7.73 3.456 7.73 7.69 0 4.232-3.475 7.69-7.73 7.69-4.255 0-7.73-3.458-7.73-7.69 0-4.234 3.475-7.69 7.73-7.69z" fill="#fff"/><path d="M5.848 4.763h39.64c.78 0 1.419.635 1.419 1.411V13.3c0 .776.638 1.411 1.418 1.411h1.347a1.42 1.42 0 001.419-1.41V1.94c0-.776-.639-1.41-1.419-1.41H1.593C.813.53.175 1.164.175 1.94v46.353c0 .776.638 1.411 1.418 1.411h15.743c.78 0 1.418-.635 1.418-1.411v-1.34c0-.777-.638-1.412-1.418-1.412H5.848c-.78 0-1.418-.635-1.418-1.41V6.173c0-.776.638-1.41 1.418-1.41z" fill="#fff"/></symbol><symbol fill="none" id="sprite-icon-slider-original" viewBox="0 0 103 58"><title>icon-slider-original</title><path d="M40.09 14.44c2.173-.361 5.494-.602 9.116-.602 4.468 0 7.668.662 9.781 2.346 1.811 1.444 2.777 3.55 2.777 6.318 0 3.85-2.717 6.498-5.373 7.46v.12c2.113.843 3.26 2.889 4.045 5.656.966 3.43 1.872 7.34 2.475 8.484h-6.943c-.483-.903-1.207-3.31-2.113-7.04-.785-3.79-2.113-4.813-4.89-4.813h-2.053v11.792H40.09V14.44zm6.762 12.935h2.717c3.441 0 5.433-1.684 5.433-4.332 0-2.767-1.871-4.151-5.01-4.211-1.691 0-2.597.12-3.08.24v8.303h-.06z" fill="#fff"/><path d="M50.413 0c-16.06 0-29.1 12.996-29.1 29 0 16.004 13.04 29 29.1 29 16.06 0 29.1-12.996 29.1-29 0-16.004-13.04-29-29.1-29zm26.384 29c0 14.5-11.834 26.232-26.323 26.232C35.924 55.232 24.15 43.44 24.15 29S35.984 2.768 50.474 2.768C64.963 2.708 76.797 14.5 76.797 29zM1.992 25.511h14.43a2.007 2.007 0 001.992-1.985 2.007 2.007 0 00-1.992-1.986H1.992A2.007 2.007 0 000 23.526c0 1.082.906 1.985 1.992 1.985zm14.431 3.249H5.313a2.007 2.007 0 00-1.992 1.985c0 1.083.906 1.986 1.993 1.986h11.109a2.007 2.007 0 001.992-1.986c0-1.023-.906-1.985-1.992-1.985zm0 7.34H9.419a2.007 2.007 0 00-1.992 1.986c0 1.083.905 1.986 1.992 1.986h7.004a2.007 2.007 0 001.992-1.986 2.007 2.007 0 00-1.992-1.985zM103 23.465a2.006 2.006 0 00-1.992-1.985h-14.43a2.007 2.007 0 00-1.992 1.985c0 1.083.906 1.985 1.992 1.985h14.37c1.086.06 2.052-.902 2.052-1.985zm-18.475 7.34c0 1.084.906 1.986 1.993 1.986h11.109a2.007 2.007 0 001.992-1.985 2.007 2.007 0 00-1.992-1.986h-11.11c-1.086-.06-1.992.903-1.992 1.985zm0 7.341c0 1.082.906 1.985 1.993 1.985h7.003a2.007 2.007 0 001.993-1.985 2.007 2.007 0 00-1.993-1.986h-7.003c-1.087-.06-1.993.842-1.993 1.986z" fill="#fff"/></symbol><symbol fill="none" id="sprite-letter-orange" viewBox="0 0 34 23"><title>letter-orange</title><path d="M31.05.04H2.383A2.15 2.15 0 00.217 2.185v17.706c0 1.19.966 2.147 2.166 2.147H31.05c1.2 0 2.167-.958 2.167-2.147V2.153A2.168 2.168 0 0031.05.04zM2.217 17.645V4.994l7.333 6.243-7.333 6.409zm8.9-5.087l5.6 4.79 5.667-4.823 8.6 7.498H2.55l8.567-7.465zm12.8-1.355l7.266-6.21v12.553l-7.266-6.343zM2.383 2.021H31.05c.067 0 .167.066.167.165v.231l-14.5 12.289-14.5-12.322v-.23c0-.067.1-.133.166-.133z" fill="#EF5F2C"/></symbol><symbol fill="none" id="sprite-letter" viewBox="0 0 18 12"><title>letter</title><path d="M16.818 0H1.182C.527 0 0 .523 0 1.171v9.658C0 11.477.527 12 1.182 12h15.636c.655 0 1.182-.523 1.182-1.171V1.153A1.182 1.182 0 0016.818 0zM1.091 9.604V2.703l4 3.405-4 3.496zm4.854-2.775L9 9.44l3.09-2.63 4.692 4.09H1.272l4.673-4.072zm6.982-.739l3.964-3.387V9.55l-3.964-3.46zM1.182 1.081h15.636c.037 0 .091.036.091.09v.126L9 8 1.09 1.28v-.127c0-.036.055-.072.092-.072z" fill="#fff"/></symbol><symbol fill="none" id="sprite-map" viewBox="0 0 58 68"><title>map</title><g filter="url(#filter0_f)"><path d="M29.51 56.523a.5.5 0 01-.5.477c-.29 0-.51-.21-.52-.477-.145-3.168-1.756-5.217-4.832-6.147C13.53 47.968 6 38.863 6 28 6 15.297 16.297 5 29 5s23 10.297 23 23c0 10.863-7.53 19.968-17.658 22.376-3.076.93-4.687 2.98-4.83 6.147h-.002z" fill="#F33"/></g><path d="M29.51 56.523a.5.5 0 01-.5.477c-.29 0-.51-.21-.52-.477-.145-3.168-1.756-5.217-4.832-6.147C13.53 47.968 6 38.863 6 28 6 15.297 16.297 5 29 5s23 10.297 23 23c0 10.863-7.53 19.968-17.658 22.376-3.076.93-4.687 2.98-4.83 6.147h-.002z" fill="#F33"/><path d="M29 68c-2.21 0-4-1.79-4-4s1.79-4 4-4 4 1.79 4 4-1.79 4-4 4z" fill="#fff"/><path fill-rule="evenodd" clip-rule="evenodd" d="M29 66a2 2 0 10.09-3.998 2 2 0 00-.09 3.997z" fill="#F33"/><path fill-rule="evenodd" clip-rule="evenodd" d="M32 23v10.69c0 .162.12.296.276.309a.305.305 0 00.323-.283L32.972 29H37v-1h-3.949l.158-2H37v-1h-3.712l.158-2H38.4a.6.6 0 01.6.6v13.8a.6.6 0 01-.6.6H27v-4.8a.2.2 0 00-.2-.2h-2.6a.2.2 0 00-.2.2V38h-4.4a.6.6 0 01-.6-.6v-20c0-.22.18-.4.4-.4h.6v-.6c0-.22.18-.4.4-.4h10.2c.22 0 .4.18.4.4v.6h.6c.22 0 .4.18.4.4V23zm1.605-2H36.6c.22 0 .4.18.4.4v.6h-3.474l.079-1zM22.5 24v6h2v-6h-2zm4 0v6h2v-6h-2zm-4-5v3h2v-3h-2zm4 0v3h2v-3h-2zM34 31v1h3v-1h-3z" fill="#fff"/><defs><filter id="filter0_f" x="0" y="-1" width="58" height="64" filterUnits="userSpaceOnUse" color-interpolation-filters="sRGB"><feFlood flood-opacity="0" result="BackgroundImageFix"/><feBlend in="SourceGraphic" in2="BackgroundImageFix" result="shape"/><feGaussianBlur stdDeviation="3" result="effect1_foregroundBlur"/></filter></defs></symbol><symbol fill="none" id="sprite-minus" viewBox="0 0 6 2"><title>minus</title><path fill="#526584" d="M0 0h6v2H0z"/></symbol><symbol fill="none" id="sprite-pagination-arrow-left" viewBox="0 0 18 18"><title>pagination-arrow-left</title><path fill-rule="evenodd" clip-rule="evenodd" d="M1.61 9.968l7.835 7.837.65-.65L2.257 9.32l7.836-7.836-.65-.649L1.61 8.671l-.649.648v.002l.648.649.001-.002z" fill="#54585D"/></symbol><symbol fill="none" id="sprite-pagination-arrow-right" viewBox="0 0 18 18"><title>pagination-arrow-right</title><path fill-rule="evenodd" clip-rule="evenodd" d="M16.863 8.672L9.027.836l-.649.649 7.837 7.836-7.836 7.835.649.65 7.835-7.836.65-.649V9.32l-.649-.649v.001z" fill="#54585D"/></symbol><symbol fill="none" id="sprite-pdf" viewBox="0 0 18 19"><title>pdf</title><path d="M.922 1.952v15.111c0 .8.673 1.445 1.51 1.445h13.98c.836 0 1.51-.645 1.51-1.445V1.953c0-.8-.674-1.445-1.51-1.445H2.408C1.572.53.922 1.174.922 1.952zm1.672-.11l13.54.021s.348.045.348.311V16.82c0 .222-.232.355-.51.355H2.407c-.046 0-.093-.066-.093-.11V1.951c0-.044.047-.11.116-.11h.163z" fill="#526584"/><path d="M3.959 7.64a7.95 7.95 0 011.233-.087c.55 0 .968.11 1.232.329.265.197.419.527.419.922 0 .394-.132.724-.375.943-.308.285-.77.417-1.298.417-.11 0-.22 0-.308-.022v1.426h-.903V7.641zm.88 1.822c.089.022.177.022.309.022.484 0 .77-.242.77-.659 0-.373-.264-.592-.704-.592-.176 0-.308.022-.375.044v1.185zM7.416 7.64c.33-.043.77-.087 1.233-.087.77 0 1.254.131 1.65.417.419.307.683.812.683 1.514 0 .768-.286 1.294-.66 1.624-.419.35-1.057.526-1.85.526-.462 0-.814-.022-1.034-.066V7.641h-.022zm.903 3.27c.088.022.198.022.308.022.814 0 1.364-.439 1.364-1.404 0-.834-.484-1.273-1.254-1.273-.198 0-.33.022-.418.044v2.611zm3.234-3.336h2.443v.746h-1.54v.922h1.43v.746h-1.43v1.602h-.903V7.574z" fill="#526584"/></symbol><symbol fill="none" id="sprite-plus" viewBox="0 0 10 10"><title>plus</title><path fill="#526584" d="M4 0h2v10H4z"/><path fill="#526584" d="M0 4h10v2H0z"/></symbol><symbol fill="none" id="sprite-search" viewBox="0 0 14 13"><title>search</title><path d="M13.293 11.172L9.596 7.51c-.055-.054-.082-.081-.136-.108a4.588 4.588 0 00-.653-5.79 4.774 4.774 0 00-6.66 0 4.618 4.618 0 000 6.598c1.577 1.562 4.023 1.777 5.845.646a.462.462 0 00.109.135l3.697 3.662c.244.243.652.243.924 0l.57-.565c.245-.27.245-.673 0-.916zm-10.33-3.77c-1.387-1.373-1.387-3.609 0-5.009 1.386-1.4 3.642-1.373 5.056 0 1.414 1.373 1.386 3.609 0 5.009a3.568 3.568 0 01-5.056 0z" fill="#54585D"/></symbol><symbol fill="none" id="sprite-social-fb" viewBox="0 0 31 31"><title>social-fb</title><path d="M15.344.522c-8.285 0-15 6.716-15 15 0 8.285 6.715 15 15 15 8.284 0 15-6.715 15-15 0-8.284-6.716-15-15-15zm4.919 15.836c-.603-.01-1.154.008-1.854-.023-.114-.005-1.938.023-1.932.056.133.81-.058 1.673-.047 2.493.007.478.148 4.802.083 6.398l-3.615.033c-.014-1.359.052-2.756-.007-4.547-.012-.368-.024-4.244-.067-4.448l-2.344.015s-.01-1.43-.01-1.914v-1.425s1.864-.104 2.4-.15c0 0 .054-1.815.128-2.403.086-.671.094-1.35.488-1.944.723-1.087 1.436-2.045 2.764-2.334.502-.11 3.815-.761 3.938-.225l-.075 3.226c-.901 0-1.98-.091-2.9.591-.512.381-.653.698-.705 1.325-.03.364-.038 1.838-.038 1.838.486.07 1.204.04 1.726 0 .59-.043 2.103.113 2.103.113-.001.976-.04 3.229-.036 3.325z" fill="#fff"/></symbol><symbol fill="none" id="sprite-social-in" viewBox="0 0 31 31"><title>social-in</title><path d="M15.51.064c-8.288 0-15 6.722-15 15 0 8.28 6.72 15 15 15 8.279 0 15-6.72 15-15 0-8.278-6.713-15-15-15zm8.734 19.683c0 2.24-1.82 4.06-4.061 4.06h-9.347c-2.24 0-4.06-1.82-4.06-4.06V10.4c0-2.24 1.82-4.06 4.06-4.06h9.347c2.24 0 4.06 1.82 4.06 4.06v9.347z" fill="#fff"/><path d="M20.183 7.651h-9.346A2.753 2.753 0 008.089 10.4v9.347a2.753 2.753 0 002.748 2.748h9.346a2.753 2.753 0 002.748-2.748V10.4a2.753 2.753 0 00-2.748-2.748zM15.51 19.912c-2.67 0-4.84-2.17-4.84-4.84 0-2.669 2.17-4.839 4.84-4.839s4.84 2.17 4.84 4.84c0 2.669-2.17 4.84-4.84 4.84zm5.006-8.375c-.814 0-1.47-.656-1.47-1.47s.656-1.47 1.47-1.47 1.47.656 1.47 1.47a1.48 1.48 0 01-1.47 1.47z" fill="#fff"/><path d="M15.51 18.61a3.536 3.536 0 100-7.072 3.536 3.536 0 000 7.071z" fill="#fff"/></symbol><symbol fill="none" id="sprite-social-vk" viewBox="0 0 31 31"><title>social-vk</title><path d="M15.344.522c-8.285 0-15 6.716-15 15 0 8.285 6.715 15 15 15 8.284 0 15-6.715 15-15 0-8.284-6.716-15-15-15zm8.061 20.693c-.64.4-3.241.52-3.87.062-.346-.251-.662-.565-.962-.864-.21-.209-.448-.31-.629-.537-.147-.186-.248-.405-.403-.588-.262-.307-.664-.569-.983-.193-.48.565.076 1.675-.564 2.097-.214.141-.43.182-.699.162l-.593.027c-.349.007-.902.01-1.298-.061-.443-.08-.808-.322-1.209-.5-.76-.336-1.483-.796-2.034-1.431-1.499-1.732-3.512-4.114-4.295-6.292-.16-.447-.586-1.334-.183-1.717.548-.399 3.237-.51 3.657.105.17.25.278.616.398.9.15.353.232.686.466 1 .208.277.36.556.521.86.18.342.351.67.57.983.15.214.543.64.791.671.607.078.57-1.397.524-1.757a6.967 6.967 0 01-.042-1.067c.01-.3.036-.724-.141-.969-.29-.4-.936-.1-.986-.638.106-.152.084-.287.796-.522.56-.184.923-.178 1.293-.149.754.06 1.553-.143 2.281.101.695.234.588 1.223.564 1.815-.031.808.003 1.597 0 2.417 0 .374-.015.737.44.707.427-.029.47-.388.674-.684.284-.414.544-.833.833-1.245.389-.556.506-1.182.873-1.752.13-.204.243-.638.445-.8.153-.122.443-.058.628-.058h.44c.336 0 .679-.002 1.025.01.498.017 1.055-.097 1.549-.027 2.13.3-2.677 4.854-2.427 5.667.173.561 1.27 1.189 1.665 1.648.526.613 2.143 1.83.885 2.619z" fill="#fff"/></symbol><symbol fill="#1C2127" id="sprite-swiper-btn-next" viewBox="0 0 19 11"><title>swiper-btn-next</title><path d="M10.152 9.355l7.876-7.876-.652-.652L9.5 8.703 1.624.827l-.652.652L9.5 10.007l.652-.652z"/></symbol><symbol fill="none" id="sprite-trash-can" viewBox="0 0 20 26"><title>trash-can</title><path d="M13.417 3.564v-.74c0-1.186-.972-2.175-2.138-2.175H8.364c-1.167 0-2.139.989-2.139 2.174v.741l-5.88-.05v1.483h19V3.515l-5.928.05zm-1.36-.74v.74h-4.47v-.74c0-.445.34-.791.777-.791h2.915c.438-.05.778.296.778.79zm1.457 5.532h-1.457v13.34h1.457V8.356zm-3.06 0H8.996v13.34h1.458V8.356zm-3.063 0H5.934v13.34H7.39V8.356z" fill="#EF5F2C"/><path d="M15.943 6.38l-1.215 16.996c0 .396-.389.79-.826.79H5.155c-.389 0-.778-.345-.826-.79L3.114 6.381H1.656l1.215 17.094c.097 1.186 1.118 2.174 2.284 2.174h8.747c1.166 0 2.187-.939 2.284-2.174L17.4 6.381h-1.458z" fill="#EF5F2C"/></symbol><symbol fill="none" id="sprite-triangle-down" viewBox="0 0 10 5"><title>triangle-down</title><path d="M5 5L0 0h10L5 5z" fill="#526584"/></symbol><symbol id="sprite-type-product-block--list" viewBox="0 0 17 13"><title>type-product-block--list</title><path d="M.564.523h15.999v1.881H.564zm0 3.373h15.999v1.881H.564zm0 3.375h15.999v1.881H.564zm0 3.372h15.999v1.881H.564z"/></symbol><symbol id="sprite-type-product-block--tile" viewBox="0 0 17 12"><title>type-product-block--tile</title><path d="M.66 0h7.591v5.518H.66zM.659 6.482H8.25V12H.659zM9.068 0h7.591v5.518H9.068zm0 6.482h7.591V12H9.068z"/></symbol><symbol fill="none" id="sprite-warranty" viewBox="0 0 29 33"><title>warranty</title><path d="M24.102 22.013c1.514-1.309 2.49-3.24 2.49-5.366 0-3.927-3.298-7.133-7.336-7.133-4.039 0-7.337 3.174-7.337 7.133 0 2.127.976 4.057 2.49 5.366l-4.173 8.18 3.4-.982 1.312 3.273 4.308-8.475 4.307 8.474 1.313-3.272 3.399.982-4.173-8.18zm-4.846-8.933c2.019 0 3.668 1.604 3.668 3.567s-1.65 3.566-3.668 3.566c-2.02 0-3.669-1.603-3.669-3.566 0-1.963 1.65-3.567 3.669-3.567z" fill="#EF5F2C"/><path d="M2.967 2.448h18.812c.37 0 .673.294.673.654v3.305c0 .36.303.654.673.654h.64c.37 0 .673-.294.673-.654V1.139a.666.666 0 00-.673-.655H.947a.666.666 0 00-.673.655v21.497c0 .36.303.655.673.655H8.42c.37 0 .673-.295.673-.655v-.621a.666.666 0 00-.673-.655H2.967a.666.666 0 01-.673-.654V3.102c0-.36.303-.654.673-.654z" fill="#EF5F2C"/></symbol></svg>