<svg width="18" height="21" viewBox="0 0 18 21" fill="none" xmlns="http://www.w3.org/2000/svg">
<path d="M0.773438 4.76617V18.7581C0.773438 19.4988 1.32549 20.0955 2.0108 20.0955H13.4707C14.156 20.0955 14.7081 19.4988 14.7081 18.7581V4.76617C14.7081 4.02542 14.156 3.42871 13.4707 3.42871H1.99177C1.30646 3.44929 0.773438 4.046 0.773438 4.76617ZM2.14406 4.66329L13.2423 4.68386C13.2423 4.68386 13.5278 4.72502 13.5278 4.97193C13.5278 5.21885 13.5278 18.2436 13.5278 18.5317C13.5278 18.7375 13.3374 18.8609 13.109 18.8609C12.6712 18.8609 12.1572 18.8609 12.1572 18.8609H2.12502H1.99177C1.95369 18.8609 1.91562 18.7992 1.91562 18.7581V4.76617C1.91562 4.72502 1.95369 4.66329 2.0108 4.66329H2.14406Z" fill="#526584"/>
<path d="M16.5547 0.0957031H5.07575C4.39044 0.116279 3.85742 0.712992 3.85742 1.43316V2.3591H4.9996V1.43316C4.9996 1.39201 5.03768 1.33028 5.09479 1.33028H5.22804L16.3262 1.35086C16.3262 1.35086 16.6118 1.39201 16.6118 1.63892C16.6118 1.88584 16.6118 14.9106 16.6118 15.1987C16.6118 15.4045 16.4214 15.5279 16.193 15.5279C16.0217 15.5279 15.8313 15.5279 15.66 15.5279V16.7625H16.5356C17.221 16.7625 17.773 16.1658 17.773 15.425V1.43316C17.7921 0.692415 17.24 0.0957031 16.5547 0.0957031Z" fill="#526584"/>
</svg>
