<svg width="130" height="27" viewBox="0 0 130 27" fill="none" xmlns="http://www.w3.org/2000/svg">
<path d="M21.5106 0.0224609V17.8959C21.5106 19.5403 20.1998 20.8748 18.5847 20.8748H17.4378C15.8228 20.8748 14.512 19.5403 14.512 17.8959V0.0224609H0V20.0407C0 23.8537 3.06625 26.9995 6.83469 26.9995H30.5689C34.3139 26.9995 37.4036 23.8776 37.4036 20.0407V0.0224609H21.5106V0.0224609Z" fill="white"/>
<path d="M69.5403 0.0234375L64.3909 12.511L59.2414 0.0234375H40.9609V26.2378H55.0985V13.5596L60.1075 26.2378H69.0253L74.0343 13.5596V26.2378H88.5464V0.0234375H69.5403Z" fill="white"/>
<path d="M110.76 12.3208V18.3739H114.154C113.733 19.8038 112.422 20.8285 110.9 20.8285H110.62C108.747 20.8285 107.202 19.2557 107.202 17.3492V9.62784C107.202 7.72134 108.747 6.14847 110.62 6.14847H110.9C112.656 6.14847 114.107 7.50685 114.294 9.22271C114.341 9.22271 123.446 9.22271 130 9.22271V6.95874C130 3.14573 126.934 0 123.165 0H98.5886C94.8436 0 91.7539 3.1219 91.7539 6.95874V20.0183C91.7539 23.8313 94.8202 26.977 98.5886 26.977H123.165C126.91 26.977 130 23.8551 130 20.0183V12.3208H110.76Z" fill="white"/>
</svg>
