<svg width="103" height="58" viewBox="0 0 103 58" fill="none" xmlns="http://www.w3.org/2000/svg">
<path d="M40.0898 14.4396C42.2633 14.0786 45.584 13.8379 49.2064 13.8379C53.6742 13.8379 56.874 14.4997 58.9872 16.1844C60.7984 17.6283 61.7644 19.7342 61.7644 22.5018C61.7644 26.3524 59.0475 28.9997 56.391 29.9624V30.0827C58.5042 30.925 59.6513 32.9707 60.4362 35.7383C61.4022 39.1678 62.3078 43.0786 62.9115 44.2217H55.9684C55.4854 43.3192 54.7609 40.9126 53.8553 37.1823C53.0704 33.3918 51.7422 32.369 48.9649 32.369H46.9122V44.1615H40.0898V14.4396ZM46.8518 27.3752H49.5687C53.0101 27.3752 55.0024 25.6906 55.0024 23.0433C55.0024 20.2757 53.1308 18.8918 49.9913 18.8317C48.3008 18.8317 47.3952 18.952 46.9122 19.0723V27.3752H46.8518Z" fill="white"/>
<path d="M50.4132 0C34.3535 0 21.3125 12.9958 21.3125 29C21.3125 45.0041 34.3535 58 50.4132 58C66.4729 58 79.5138 45.0041 79.5138 29C79.5138 12.9958 66.4729 0 50.4132 0ZM76.7969 29C76.7969 43.5 64.9635 55.2324 50.4735 55.2324C35.9232 55.2324 24.1501 43.4398 24.1501 29C24.1501 14.5602 35.9836 2.76763 50.4735 2.76763C64.9635 2.70747 76.7969 14.5 76.7969 29Z" fill="white"/>
<path d="M1.99237 25.511H16.4219C17.5087 25.511 18.4143 24.6085 18.4143 23.5255C18.4143 22.4425 17.5087 21.54 16.4219 21.54H1.99237C0.905622 21.54 0 22.4425 0 23.5255C0 24.6085 0.905622 25.511 1.99237 25.511Z" fill="white"/>
<path d="M16.4226 28.7598H5.31366C4.22691 28.7598 3.32129 29.6623 3.32129 30.7452C3.32129 31.8282 4.22691 32.7307 5.31366 32.7307H16.4226C17.5094 32.7307 18.415 31.8282 18.415 30.7452C18.415 29.7224 17.5094 28.7598 16.4226 28.7598Z" fill="white"/>
<path d="M16.4226 36.1006H9.41913C8.33238 36.1006 7.42676 37.0031 7.42676 38.0861C7.42676 39.1691 8.33238 40.0715 9.41913 40.0715H16.4226C17.5094 40.0715 18.415 39.1691 18.415 38.0861C18.415 37.0031 17.5094 36.1006 16.4226 36.1006Z" fill="white"/>
<path d="M103 23.465C103 22.382 102.095 21.4795 101.008 21.4795H86.5783C85.4916 21.4795 84.5859 22.382 84.5859 23.465C84.5859 24.548 85.4916 25.4504 86.5783 25.4504H100.948C102.034 25.5106 103 24.548 103 23.465Z" fill="white"/>
<path d="M84.5254 30.8055C84.5254 31.8885 85.431 32.791 86.5178 32.791H97.6267C98.7135 32.791 99.6191 31.8885 99.6191 30.8055C99.6191 29.7226 98.7135 28.8201 97.6267 28.8201H86.5178C85.431 28.7599 84.5254 29.7226 84.5254 30.8055Z" fill="white"/>
<path d="M84.5254 38.1456C84.5254 39.2285 85.431 40.131 86.5178 40.131H93.5213C94.608 40.131 95.5136 39.2285 95.5136 38.1456C95.5136 37.0626 94.608 36.1601 93.5213 36.1601H86.5178C85.431 36.0999 84.5254 37.0024 84.5254 38.1456Z" fill="white"/>
</svg>
