<svg width="60" height="70" viewBox="0 0 60 70" fill="none" xmlns="http://www.w3.org/2000/svg">
<path d="M50.3824 46.9538C53.5735 44.1317 55.63 39.9691 55.63 35.3833C55.63 26.917 48.6804 20.0029 40.1708 20.0029C31.6612 20.0029 24.7117 26.8465 24.7117 35.3833C24.7117 39.9691 26.7682 44.1317 29.9593 46.9538L21.166 64.5918L28.3283 62.4752L31.0939 69.5304L40.1708 51.2574L49.2478 69.5304L52.0134 62.4752L59.1756 64.5918L50.3824 46.9538ZM40.1708 27.6931C44.4256 27.6931 47.9004 31.1501 47.9004 35.3833C47.9004 39.6164 44.4256 43.0734 40.1708 43.0734C35.916 43.0734 32.4413 39.6164 32.4413 35.3833C32.4413 31.1501 35.916 27.6931 40.1708 27.6931Z" fill="white"/>
<path d="M5.84788 4.76339H45.4885C46.2686 4.76339 46.9068 5.39836 46.9068 6.17443V13.3002C46.9068 14.0763 47.545 14.7112 48.325 14.7112H49.6724C50.4524 14.7112 51.0907 14.0763 51.0907 13.3002V1.94131C51.0907 1.16524 50.4524 0.530273 49.6724 0.530273H1.59307C0.813026 0.530273 0.174805 1.16524 0.174805 1.94131V48.294C0.174805 49.07 0.813026 49.705 1.59307 49.705H17.3359C18.1159 49.705 18.7541 49.07 18.7541 48.294V46.9535C18.7541 46.1774 18.1159 45.5424 17.3359 45.5424H5.84788C5.06783 45.5424 4.42961 44.9075 4.42961 44.1314V6.17443C4.42961 5.39836 5.06783 4.76339 5.84788 4.76339Z" fill="white"/>
</svg>
