<svg width="18" height="12" viewBox="0 0 18 12" fill="none" xmlns="http://www.w3.org/2000/svg">
<path d="M16.8182 0H1.18182C0.527273 0 0 0.522523 0 1.17117V10.8288C0 11.4775 0.527273 12 1.18182 12H16.8182C17.4727 12 18 11.4775 18 10.8288V1.15315C17.9818 0.504505 17.4545 0 16.8182 0ZM1.09091 9.6036V2.7027L5.09091 6.10811L1.09091 9.6036ZM5.94545 6.82883L9 9.44144L12.0909 6.81081L16.7818 10.9009H1.27273L5.94545 6.82883ZM12.9273 6.09009L16.8909 2.7027V9.54955L12.9273 6.09009ZM1.18182 1.08108H16.8182C16.8545 1.08108 16.9091 1.11712 16.9091 1.17117V1.2973L9 8L1.09091 1.27928V1.15315C1.09091 1.11712 1.14545 1.08108 1.18182 1.08108Z" fill="white"/>
</svg>
