<svg width="58" height="68" viewBox="0 0 58 68" fill="none" xmlns="http://www.w3.org/2000/svg">
<g filter="url(#filter0_f)">
<path d="M29.51 56.523C29.5041 56.6516 29.4488 56.7729 29.3557 56.8618C29.2625 56.9506 29.1387 57.0001 29.01 57C28.72 57 28.5 56.79 28.49 56.523C28.345 53.355 26.734 51.306 23.658 50.376C13.53 47.968 6 38.863 6 28C6 15.297 16.297 5 29 5C41.703 5 52 15.297 52 28C52 38.863 44.47 47.968 34.342 50.376C31.266 51.306 29.655 53.356 29.512 56.523H29.51Z" fill="#FF3333"/>
</g>
<path d="M29.51 56.523C29.5041 56.6516 29.4488 56.7729 29.3557 56.8618C29.2625 56.9506 29.1387 57.0001 29.01 57C28.72 57 28.5 56.79 28.49 56.523C28.345 53.355 26.734 51.306 23.658 50.376C13.53 47.968 6 38.863 6 28C6 15.297 16.297 5 29 5C41.703 5 52 15.297 52 28C52 38.863 44.47 47.968 34.342 50.376C31.266 51.306 29.655 53.356 29.512 56.523H29.51Z" fill="#FF3333"/>
<path d="M29 68C26.79 68 25 66.21 25 64C25 61.79 26.79 60 29 60C31.21 60 33 61.79 33 64C33 66.21 31.21 68 29 68Z" fill="white"/>
<path fill-rule="evenodd" clip-rule="evenodd" d="M28.9997 65.9995C29.266 66.0055 29.5309 65.9583 29.7787 65.8605C30.0266 65.7628 30.2524 65.6165 30.4429 65.4303C30.6334 65.2441 30.7848 65.0217 30.8882 64.7761C30.9916 64.5306 31.0449 64.2669 31.0449 64.0005C31.045 63.7341 30.9918 63.4704 30.8886 63.2248C30.7853 62.9792 30.634 62.7567 30.4436 62.5704C30.2532 62.3841 30.0274 62.2377 29.7797 62.1399C29.5319 62.042 29.267 61.9946 29.0007 62.0005C28.4781 62.012 27.9809 62.2277 27.6153 62.6013C27.2498 62.9749 27.0451 63.4768 27.0449 63.9995C27.0448 64.5222 27.2493 65.0242 27.6146 65.398C27.98 65.7718 28.4772 65.9877 28.9997 65.9995V65.9995Z" fill="#FF3333"/>
<path fill-rule="evenodd" clip-rule="evenodd" d="M32 23V33.69C32 33.852 32.12 33.986 32.276 33.999C32.3158 34.0017 32.3558 33.9965 32.3936 33.9838C32.4314 33.971 32.4663 33.9509 32.4963 33.9246C32.5263 33.8983 32.5508 33.8663 32.5685 33.8305C32.5861 33.7947 32.5965 33.7558 32.599 33.716L32.972 29H37V28H33.051L33.209 26H37V25H33.288L33.446 23H38.4C38.4788 23 38.5568 23.0155 38.6296 23.0457C38.7024 23.0758 38.7685 23.12 38.8243 23.1757C38.88 23.2315 38.9242 23.2976 38.9543 23.3704C38.9845 23.4432 39 23.5212 39 23.6V37.4C39 37.4788 38.9845 37.5568 38.9543 37.6296C38.9242 37.7024 38.88 37.7685 38.8243 37.8243C38.7685 37.88 38.7024 37.9242 38.6296 37.9543C38.5568 37.9845 38.4788 38 38.4 38H27V33.2C27 33.147 26.9789 33.0961 26.9414 33.0586C26.9039 33.0211 26.853 33 26.8 33H24.2C24.147 33 24.0961 33.0211 24.0586 33.0586C24.0211 33.0961 24 33.147 24 33.2V38H19.6C19.4409 38 19.2883 37.9368 19.1757 37.8243C19.0632 37.7117 19 37.5591 19 37.4V17.4C19 17.18 19.18 17 19.4 17H20V16.4C20 16.18 20.18 16 20.4 16H30.6C30.82 16 31 16.18 31 16.4V17H31.6C31.82 17 32 17.18 32 17.4V23ZM33.605 21H36.6C36.82 21 37 21.18 37 21.4V22H33.526L33.605 21ZM22.5 24V30H24.5V24H22.5ZM26.5 24V30H28.5V24H26.5ZM22.5 19V22H24.5V19H22.5ZM26.5 19V22H28.5V19H26.5ZM34 31V32H37V31H34Z" fill="white"/>
<defs>
<filter id="filter0_f" x="0" y="-1" width="58" height="64" filterUnits="userSpaceOnUse" color-interpolation-filters="sRGB">
<feFlood flood-opacity="0" result="BackgroundImageFix"/>
<feBlend mode="normal" in="SourceGraphic" in2="BackgroundImageFix" result="shape"/>
<feGaussianBlur stdDeviation="3" result="effect1_foregroundBlur"/>
</filter>
</defs>
</svg>
