<svg width="31" height="31" viewBox="0 0 31 31" fill="none" xmlns="http://www.w3.org/2000/svg">
<path d="M15.5098 0.0644531C7.22214 0.0644531 0.509766 6.78557 0.509766 15.0645C0.509766 23.3433 7.23089 30.0645 15.5098 30.0645C23.7886 30.0645 30.5098 23.3433 30.5098 15.0645C30.5098 6.78557 23.7974 0.0644531 15.5098 0.0644531ZM24.2437 19.7465C24.2437 21.9869 22.4234 23.8072 20.183 23.8072H10.8365C8.59611 23.8072 6.77581 21.9869 6.77581 19.7465V10.3999C6.77581 8.15955 8.59611 6.33925 10.8365 6.33925H20.183C22.4234 6.33925 24.2437 8.15955 24.2437 10.3999V19.7465Z" fill="white"/>
<path d="M20.1834 7.65137H10.8368C9.32282 7.65137 8.08887 8.88532 8.08887 10.3993V19.7459C8.08887 21.2599 9.32282 22.4938 10.8368 22.4938H20.1834C21.6974 22.4938 22.9313 21.2599 22.9313 19.7459V10.3993C22.9313 8.88532 21.6974 7.65137 20.1834 7.65137ZM15.5101 19.9122C12.8409 19.9122 10.6705 17.7418 10.6705 15.0726C10.6705 12.4034 12.8409 10.233 15.5101 10.233C18.1793 10.233 20.3497 12.4034 20.3497 15.0726C20.3497 17.7418 18.1793 19.9122 15.5101 19.9122ZM20.5159 11.537C19.7021 11.537 19.0457 10.8807 19.0457 10.0668C19.0457 9.25288 19.7021 8.59652 20.5159 8.59652C21.3298 8.59652 21.9862 9.25288 21.9862 10.0668C21.9862 10.8719 21.3211 11.537 20.5159 11.537Z" fill="white"/>
<path d="M15.5102 18.6093C17.4629 18.6093 19.0458 17.0263 19.0458 15.0737C19.0458 13.121 17.4629 11.5381 15.5102 11.5381C13.5575 11.5381 11.9746 13.121 11.9746 15.0737C11.9746 17.0263 13.5575 18.6093 15.5102 18.6093Z" fill="white"/>
</svg>
