<svg width="31" height="31" viewBox="0 0 31 31" fill="none" xmlns="http://www.w3.org/2000/svg">
<path d="M15.3437 0.522461C7.0593 0.522461 0.34375 7.23802 0.34375 15.5225C0.34375 23.8069 7.0593 30.5225 15.3437 30.5225C23.6282 30.5225 30.3438 23.8069 30.3438 15.5225C30.3438 7.23802 23.6282 0.522461 15.3437 0.522461ZM20.2626 16.3582C19.6601 16.3482 19.1093 16.3657 18.4091 16.3355C18.2953 16.3303 16.4713 16.3576 16.4769 16.3907C16.6095 17.2018 16.419 18.0636 16.4304 18.8838C16.4372 19.3618 16.5776 23.6863 16.5129 25.2816L12.8984 25.3147C12.8835 23.9564 12.9498 22.5594 12.891 20.7679C12.879 20.3997 12.8669 16.5237 12.824 16.3196C12.824 16.3196 11.2265 16.331 10.4798 16.3355C10.4798 16.3355 10.4697 14.905 10.4697 14.4212C10.4697 13.9458 10.4697 13.471 10.4697 12.9956C10.4697 12.9956 12.3343 12.8923 12.8695 12.8458C12.8695 12.8458 12.9241 11.0312 12.9982 10.4434C13.0837 9.77203 13.0921 9.09352 13.4863 8.4995C14.2087 7.41219 14.9216 6.45389 16.2497 6.16501C16.7521 6.05517 20.065 5.40396 20.1879 5.93981L20.1125 9.16598C19.2117 9.16598 18.1322 9.07467 17.2129 9.7574C16.7011 10.1383 16.5597 10.4554 16.5081 11.0819C16.4772 11.4462 16.47 12.9205 16.47 12.9205C16.9555 12.9897 17.674 12.9592 18.1959 12.9205C18.7854 12.8767 20.2987 13.033 20.2987 13.033C20.298 14.0088 20.259 16.2617 20.2626 16.3582Z" fill="white"/>
</svg>
