<svg width="31" height="31" viewBox="0 0 31 31" fill="none" xmlns="http://www.w3.org/2000/svg">
<path d="M15.3437 0.522461C7.0593 0.522461 0.34375 7.23802 0.34375 15.5225C0.34375 23.8069 7.0593 30.5225 15.3437 30.5225C23.6282 30.5225 30.3438 23.8069 30.3438 15.5225C30.3438 7.23802 23.6282 0.522461 15.3437 0.522461ZM23.4053 21.2147C22.7651 21.6151 20.1638 21.7343 19.5341 21.2768C19.1886 21.0259 18.8728 20.712 18.5728 20.4131C18.3629 20.2041 18.1247 20.1027 17.9444 19.8759C17.7972 19.6904 17.6961 19.4713 17.5411 19.2881C17.2795 18.9806 16.8769 18.7191 16.5584 19.0947C16.0788 19.6598 16.6338 20.7695 15.9943 21.1917C15.7798 21.3333 15.5634 21.3743 15.2953 21.3541L14.7016 21.3811C14.353 21.3879 13.8005 21.3912 13.4038 21.3197C12.9612 21.2397 12.5956 20.998 12.1952 20.8206C11.4355 20.4836 10.7118 20.0244 10.161 19.3885C8.66199 17.6565 6.64856 15.2745 5.86639 13.097C5.70553 12.6495 5.28049 11.7634 5.68344 11.3796C6.23131 10.9815 8.92033 10.8694 9.33985 11.4849C9.51013 11.7351 9.61769 12.101 9.73825 12.3847C9.88838 12.7382 9.96962 13.0713 10.2042 13.3842C10.4119 13.6618 10.5649 13.9409 10.7255 14.2451C10.9058 14.5866 11.0761 14.9141 11.2954 15.2284C11.4443 15.4422 11.8378 15.8676 12.0864 15.8991C12.6934 15.9767 12.6557 14.5018 12.6105 14.1417C12.5673 13.7947 12.5563 13.4265 12.5676 13.0746C12.5774 12.7743 12.6044 12.3512 12.4266 12.1062C12.1368 11.7065 11.4911 12.0055 11.4407 11.4683C11.5473 11.3159 11.5249 11.1807 12.2368 10.9461C12.7977 10.7618 13.16 10.7677 13.5298 10.7973C14.2837 10.8577 15.0831 10.6536 15.811 10.898C16.5064 11.1323 16.3989 12.1205 16.3755 12.7126C16.344 13.5207 16.3778 14.3097 16.3755 15.1302C16.3745 15.5036 16.3596 15.8672 16.8152 15.8367C17.2421 15.8084 17.2857 15.449 17.4894 15.1527C17.7728 14.7393 18.0331 14.3201 18.3217 13.9084C18.7106 13.3517 18.8283 12.7262 19.1945 12.1559C19.3254 11.9522 19.4382 11.518 19.64 11.3568C19.7927 11.2343 20.0829 11.2983 20.2678 11.2983H20.7075C21.0438 11.2983 21.387 11.2957 21.7327 11.3078C22.2306 11.325 22.7882 11.2106 23.2818 11.2805C25.4119 11.5811 20.6045 16.1347 20.8547 16.9477C21.0276 17.5092 22.1243 18.1367 22.5201 18.5965C23.0455 19.2091 24.6632 20.4267 23.4053 21.2147Z" fill="white"/>
</svg>
