<svg width="20" height="26" viewBox="0 0 20 26" fill="none" xmlns="http://www.w3.org/2000/svg">
<path d="M13.4173 3.56434V2.82326C13.4173 1.63753 12.4454 0.649414 11.2792 0.649414H8.36361C7.19737 0.649414 6.2255 1.63753 6.2255 2.82326V3.56434L0.345703 3.51494V4.99711H19.3457V3.51494L13.4173 3.56434ZM12.0567 2.82326V3.56434H7.58611V2.82326C7.58611 2.37861 7.92627 2.03277 8.36361 2.03277H11.2792C11.7165 1.98336 12.0567 2.3292 12.0567 2.82326Z" fill="#EF5F2C"/>
<path d="M13.5144 8.35645H12.0566V21.696H13.5144V8.35645Z" fill="#EF5F2C"/>
<path d="M10.4539 8.35645H8.99609V21.696H10.4539V8.35645Z" fill="#EF5F2C"/>
<path d="M7.39139 8.35645H5.93359V21.696H7.39139V8.35645Z" fill="#EF5F2C"/>
<path d="M15.9427 6.38086L14.7279 23.3764C14.7279 23.7716 14.3391 24.1669 13.9018 24.1669H5.15497C4.76622 24.1669 4.37748 23.821 4.32888 23.3764L3.11405 6.38086H1.65625L2.87108 23.4752C2.96827 24.6609 3.98873 25.649 5.15497 25.649H13.9018C15.068 25.649 16.0885 24.7103 16.1857 23.4752L17.4005 6.38086H15.9427Z" fill="#EF5F2C"/>
</svg>
