<svg width="29" height="33" viewBox="0 0 29 33" fill="none" xmlns="http://www.w3.org/2000/svg">
<path d="M24.1016 22.0129C25.616 20.7041 26.5919 18.7736 26.5919 16.6467C26.5919 12.7203 23.2939 9.51367 19.2555 9.51367C15.217 9.51367 11.919 12.6876 11.919 16.6467C11.919 18.7736 12.895 20.7041 14.4094 22.0129L10.2363 30.193L13.6353 29.2114L14.9478 32.4835L19.2555 24.0089L23.5631 32.4835L24.8756 29.2114L28.2746 30.193L24.1016 22.0129ZM19.2555 13.0802C21.2747 13.0802 22.9237 14.6835 22.9237 16.6467C22.9237 18.61 21.2747 20.2133 19.2555 20.2133C17.2363 20.2133 15.5872 18.61 15.5872 16.6467C15.5872 14.6835 17.2363 13.0802 19.2555 13.0802Z" fill="#EF5F2C"/>
<path d="M2.9667 2.44761H21.779C22.1492 2.44761 22.4521 2.74209 22.4521 3.10202V6.40679C22.4521 6.76671 22.755 7.0612 23.1252 7.0612H23.7646C24.1348 7.0612 24.4376 6.76671 24.4376 6.40679V1.13879C24.4376 0.778859 24.1348 0.484375 23.7646 0.484375H0.947485C0.577296 0.484375 0.274414 0.778859 0.274414 1.13879V22.6362C0.274414 22.9961 0.577296 23.2906 0.947485 23.2906H8.41857C8.78876 23.2906 9.09164 22.9961 9.09164 22.6362V22.0145C9.09164 21.6545 8.78876 21.3601 8.41857 21.3601H2.9667C2.59651 21.3601 2.29363 21.0656 2.29363 20.7056V3.10202C2.29363 2.74209 2.59651 2.44761 2.9667 2.44761Z" fill="#EF5F2C"/>
</svg>
