<svg width="16" height="20" viewBox="0 0 16 20" fill="none" xmlns="http://www.w3.org/2000/svg">
<path d="M11.157 4.66405C11.157 6.94678 9.73532 9.15587 8.00038 9.15587C6.26544 9.15587 4.84375 6.97132 4.84375 4.66405C4.84375 2.35678 6.26544 0.834961 8.00038 0.834961C9.73532 0.834961 11.157 2.35678 11.157 4.66405Z" fill="#C4D3E6"/>
<path d="M15.1085 19.1953C14.988 14.2616 13.735 11.5862 11.8796 10.138C11.3253 9.6962 10.5783 9.64711 9.95184 9.9662C9.32534 10.2853 8.67473 10.4571 8.00003 10.4571C7.32534 10.4571 6.67473 10.2853 6.04823 9.9662C5.42172 9.64711 4.67473 9.72074 4.12052 10.138C2.2651 11.5862 1.01208 14.2616 0.891602 19.1953C0.891602 19.5635 1.18076 19.8826 1.5422 19.8826H14.4338C14.8193 19.8826 15.1085 19.5635 15.1085 19.1953Z" fill="#C4D3E6"/>
</svg>
