<svg width="18" height="22" viewBox="0 0 18 22" fill="none" xmlns="http://www.w3.org/2000/svg">
<path d="M16.993 9.97683H16.6726C16.5352 9.97683 16.3979 9.86319 16.375 9.72683L15.1159 1.84047C15.0015 1.18137 14.3147 0.704102 13.4677 0.704102H3.96774C3.14364 0.704102 2.434 1.2041 2.31954 1.84047L1.03761 9.74956C1.01472 9.88592 0.900265 9.99956 0.740024 9.99956H0.350868C0.167735 9.99956 0.0303857 10.1586 0.0532773 10.3405L1.79304 19.7723C1.90749 20.4996 2.68581 21.045 3.62436 21.045H13.7653C14.7039 21.045 15.4822 20.4996 15.5967 19.7723L17.3364 10.4086C17.3822 10.1814 17.222 9.97683 16.993 9.97683ZM11.3159 15.5677H9.23279V17.6359H8.20267V15.5677H6.11954V14.545H8.20267V12.4768H9.23279V14.545H11.3159V15.5677ZM14.7726 9.97683H2.7087C2.54846 9.97683 2.41111 9.81774 2.434 9.65865L3.48701 3.04501C3.57858 2.52228 4.15087 2.11319 4.81472 2.11319H12.5521C13.2388 2.11319 13.8111 2.52228 13.8798 3.04501L14.9557 9.72683C15.0244 9.86319 14.9099 9.97683 14.7726 9.97683Z" fill="#C4D3E6"/>
</svg>
