<svg width="16" height="21" viewBox="0 0 16 21" fill="none" xmlns="http://www.w3.org/2000/svg">
<path d="M0.516602 0.466797V20.5322L7.77684 15.3186L15.0925 20.5322V0.466797H0.516602ZM12.1829 6.61043L10.2431 8.5268C10.1877 8.58316 10.16 8.66771 10.1877 8.72407L10.6311 11.4295C10.6588 11.6268 10.4648 11.7677 10.2985 11.6832L7.9154 10.415C7.85997 10.3868 7.77684 10.3868 7.69371 10.415L5.31058 11.6832C5.14431 11.7677 4.95034 11.6268 4.97805 11.4295L5.42142 8.72407C5.42142 8.63952 5.42142 8.55498 5.366 8.5268L3.42624 6.61043C3.28769 6.46952 3.37082 6.24407 3.56479 6.21589L6.22504 5.82134C6.30817 5.82134 6.36359 5.76498 6.3913 5.68043L7.58287 3.22862C7.666 3.05952 7.9154 3.05952 7.99853 3.22862L9.19009 5.68043C9.21781 5.7368 9.30094 5.79316 9.35636 5.82134L12.0166 6.21589C12.2383 6.24407 12.3214 6.46952 12.1829 6.61043Z" fill="#C4D3E6"/>
</svg>
