<svg width="136" height="18" viewBox="0 0 136 18" fill="none" xmlns="http://www.w3.org/2000/svg">
<path d="M24.2195 0.053492H33.9465C34.2978 0.053492 34.541 0.481426 34.2978 0.775631L21.0582 17.8128C20.9772 17.9198 20.8421 18 20.707 18H10.9529C10.5476 18 10.3855 17.5453 10.6017 17.2779L11.7365 15.8068L0.0910733 0.748885C-0.125083 0.45468 0.0640546 0.026746 0.442328 0.026746H10.1694C10.3045 0.026746 10.4395 0.0802379 10.5206 0.187222L17.1674 8.77266L23.8412 0.187222C23.9223 0.13373 24.0304 0.053492 24.2195 0.053492ZM63.7491 17.9733C70.7201 17.9733 77.6911 17.9465 84.6622 17.9465C84.9324 17.9465 85.2025 17.9733 85.3917 17.9465C86.1752 17.893 85.5268 17.0371 85.2296 16.5022C84.5271 15.2719 83.8516 14.0416 83.1491 12.8113C83.014 12.5706 83.014 12.6241 82.7167 12.6241H76.9346L81.0686 5.5364L88.1747 17.7325C88.2558 17.8663 88.4179 17.9465 88.553 17.9465H98.4151C98.7663 17.9465 98.9825 17.5721 98.8204 17.2779L88.8772 0.240713C88.7961 0.106984 88.634 0 88.4719 0H73.6652C73.5031 0 73.341 0.106983 73.2869 0.213967L63.3438 17.2511C63.1816 17.5721 63.3708 17.9733 63.7491 17.9733ZM54.8056 5.42942C55.2919 5.42942 55.7243 5.80386 55.6972 6.33878C55.6972 6.84695 55.2919 7.24814 54.8056 7.24814H37.1348C36.8917 7.24814 36.6755 7.46211 36.6755 7.70282V17.5186C36.6755 17.7593 36.8646 17.9733 37.1348 17.9733H47.105C47.3482 17.9733 47.5644 17.786 47.5644 17.5186V12.5973H60.1825C63.8571 12.5973 66.6131 9.68202 66.6131 6.28529C66.6131 2.9153 63.8571 0.026746 60.1825 0.026746H37.1618C36.9457 0.026746 36.7025 0.240713 36.7025 0.427935V4.94799C36.7025 5.21545 36.9187 5.40267 37.1618 5.40267H54.8056V5.42942ZM100.874 17.9733H110.709C110.871 17.9733 111.033 17.893 111.087 17.7593L118.22 5.56315L125.327 17.7593C125.408 17.893 125.57 17.9733 125.705 17.9733H135.54C135.891 17.9733 136.107 17.5988 135.945 17.3046L126.002 0.267459C125.921 0.13373 125.759 0.026746 125.597 0.026746H110.79C110.628 0.026746 110.466 0.133729 110.412 0.240713L100.469 17.2779C100.306 17.5721 100.523 17.9733 100.874 17.9733Z" fill="white"/>
</svg>
