<svg width="96" height="46" viewBox="0 0 96 46" fill="none" xmlns="http://www.w3.org/2000/svg">
<path d="M88.5207 9.24072C88.1291 8.67786 87.4857 8.34015 86.8143 8.34015H73.8063V2.76792C73.8063 1.61407 72.8552 0.657227 71.7082 0.657227H24.5717C23.4248 0.657227 22.4736 1.61407 22.4736 2.76792V36.8767C22.4736 38.0306 23.4248 38.9874 24.5717 38.9874H30.5022C31.5932 42.8148 35.118 45.6572 39.2582 45.6572C43.3983 45.6572 46.9231 42.843 48.0141 38.9874H71.2606C72.3516 42.8148 75.8764 45.6572 80.0166 45.6572C84.1568 45.6572 87.6815 42.843 88.7725 38.9874H93.1085C94.2554 38.9874 95.2066 38.0306 95.2066 36.8767V19.5128C95.2066 19.0625 95.0667 18.6403 94.8149 18.3026L88.5207 9.24072ZM91.0384 20.1319H81.6391V12.5897H85.7513L91.0384 20.1319ZM26.6698 4.90676H69.6102V34.7942H48.2099C47.3987 30.5447 43.7061 27.3364 39.2582 27.3364C34.8103 27.3364 31.0897 30.5447 30.3064 34.7942H26.6698V4.90676ZM39.2582 41.4358C36.5447 41.4358 34.3347 39.2126 34.3347 36.4827C34.3347 33.7529 36.5447 31.5297 39.2582 31.5297C41.9717 31.5297 44.1816 33.7529 44.1816 36.4827C44.1816 39.2126 41.9717 41.4358 39.2582 41.4358ZM80.0445 41.4358C77.331 41.4358 75.1211 39.2126 75.1211 36.4827C75.1211 33.7529 77.331 31.5297 80.0445 31.5297C82.758 31.5297 84.968 33.7529 84.968 36.4827C84.968 39.2126 82.758 41.4358 80.0445 41.4358ZM88.9963 34.7942C88.185 30.5447 84.4924 27.3364 80.0445 27.3364C77.6388 27.3364 75.4288 28.2933 73.8063 29.8411V12.5897H77.415V22.2426C77.415 23.3964 78.3661 24.3533 79.513 24.3533H91.0664V34.7942H88.9963Z" fill="white"/>
<path d="M2.3051 4.90303H17.2713C18.4183 4.90303 19.3694 3.94618 19.3694 2.79233C19.3694 1.63849 18.4183 0.681641 17.2713 0.681641H2.3051C1.15815 0.681641 0.207031 1.63849 0.207031 2.79233C0.207031 3.94618 1.15815 4.90303 2.3051 4.90303Z" fill="white"/>
<path d="M17.2709 8.36719H5.74552C4.59858 8.36719 3.64746 9.32404 3.64746 10.4779C3.64746 11.6317 4.59858 12.5886 5.74552 12.5886H17.2709C18.4178 12.5886 19.369 11.6317 19.369 10.4779C19.369 9.32404 18.4458 8.36719 17.2709 8.36719Z" fill="white"/>
<path d="M17.2718 16.0508H9.99846C8.85151 16.0508 7.90039 17.0076 7.90039 18.1615C7.90039 19.3153 8.85151 20.2722 9.99846 20.2722H17.2718C18.4187 20.2722 19.3698 19.3153 19.3698 18.1615C19.3698 17.0076 18.4467 16.0508 17.2718 16.0508Z" fill="white"/>
<path d="M17.271 23.7344H14.7533C13.6064 23.7344 12.6553 24.6912 12.6553 25.8451C12.6553 26.9989 13.6064 27.9558 14.7533 27.9558H17.271C18.418 27.9558 19.3691 26.9989 19.3691 25.8451C19.3691 24.6912 18.4459 23.7344 17.271 23.7344Z" fill="white"/>
</svg>
