<svg width="34" height="23" viewBox="0 0 34 23" fill="none" xmlns="http://www.w3.org/2000/svg">
<path d="M31.0501 0.0390625H2.38346C1.18346 0.0390625 0.216797 0.997021 0.216797 2.18621V19.8919C0.216797 21.0811 1.18346 22.0391 2.38346 22.0391H31.0501C32.2501 22.0391 33.2168 21.0811 33.2168 19.8919V2.15318C33.1835 0.963988 32.2168 0.0390625 31.0501 0.0390625ZM2.2168 17.6457V4.99402L9.55013 11.2373L2.2168 17.6457ZM11.1168 12.5586L16.7168 17.3484L22.3835 12.5256L30.9835 20.024H2.55013L11.1168 12.5586ZM23.9168 11.2042L31.1835 4.99402V17.5466L23.9168 11.2042ZM2.38346 2.02104H31.0501C31.1168 2.02104 31.2168 2.08711 31.2168 2.18621V2.41744L16.7168 14.7057L2.2168 2.38441V2.15318C2.2168 2.08711 2.3168 2.02104 2.38346 2.02104Z" fill="#EF5F2C"/>
</svg>
