<svg width="18" height="19" viewBox="0 0 18 19" fill="none" xmlns="http://www.w3.org/2000/svg">
<path d="M0.921875 1.95226V17.0634C0.921875 17.8634 1.59537 18.5078 2.43144 18.5078H16.4123C17.2484 18.5078 17.9219 17.8634 17.9219 17.0634V1.95226C17.9219 1.15226 17.2484 0.507812 16.4123 0.507812H2.40821C1.57215 0.530035 0.921875 1.17448 0.921875 1.95226ZM2.59401 1.84115L16.1336 1.86337C16.1336 1.86337 16.482 1.90781 16.482 2.17448C16.482 2.44115 16.482 16.5078 16.482 16.8189C16.482 17.0411 16.2497 17.1745 15.9711 17.1745C15.4369 17.1745 14.8099 17.1745 14.8099 17.1745H2.57078H2.40821C2.36177 17.1745 2.31532 17.1078 2.31532 17.0634V1.95226C2.31532 1.90781 2.36177 1.84115 2.43144 1.84115H2.59401V1.84115Z" fill="#526584"/>
<path d="M3.95898 7.64051C4.24515 7.59662 4.64137 7.55273 5.19169 7.55273C5.742 7.55273 6.16024 7.66245 6.42439 7.88189C6.68854 8.07938 6.84263 8.40853 6.84263 8.80352C6.84263 9.1985 6.71056 9.52766 6.46842 9.74709C6.16024 10.0324 5.69798 10.164 5.16968 10.164C5.05961 10.164 4.94955 10.164 4.8615 10.1421V11.5684H3.95898V7.64051ZM4.83949 9.46183C4.92754 9.48377 5.01559 9.48377 5.14766 9.48377C5.63194 9.48377 5.9181 9.24239 5.9181 8.82546C5.9181 8.45242 5.65395 8.23299 5.2137 8.23299C5.0376 8.23299 4.90553 8.25493 4.83949 8.27687V9.46183Z" fill="#526584"/>
<path d="M7.41602 7.64051C7.7462 7.59662 8.18646 7.55273 8.64872 7.55273C9.41916 7.55273 9.90344 7.6844 10.2997 7.96966C10.7179 8.27687 10.9821 8.78158 10.9821 9.48377C10.9821 10.2518 10.6959 10.7784 10.3217 11.1076C9.90344 11.4587 9.26507 11.6342 8.47262 11.6342C8.01036 11.6342 7.65815 11.6123 7.43803 11.5684V7.64051H7.41602ZM8.31853 10.9101C8.40658 10.932 8.51664 10.932 8.62671 10.932C9.44117 10.932 9.99149 10.4932 9.99149 9.52766C9.99149 8.6938 9.50721 8.25493 8.73677 8.25493C8.53866 8.25493 8.40658 8.27687 8.31853 8.29882V10.9101Z" fill="#526584"/>
<path d="M11.5527 7.57422H13.9961V8.3203H12.4553V9.24193H13.8861V9.98801H12.4553V11.5899H11.5527V7.57422Z" fill="#526584"/>
</svg>
