<svg width="14" height="13" viewBox="0 0 14 13" fill="none" xmlns="http://www.w3.org/2000/svg">
<path d="M13.2928 11.1722L9.59569 7.50969C9.54132 7.45583 9.51414 7.4289 9.45977 7.40197C10.6287 5.59766 10.4112 3.17396 8.80734 1.61202C6.9588 -0.192288 3.99569 -0.192288 2.14715 1.61202C0.298606 3.44326 0.298606 6.37863 2.14715 8.20987C3.72385 9.7718 6.17045 9.98724 7.99181 8.85618C8.01899 8.91004 8.04618 8.93698 8.10055 8.99084L11.7976 12.6533C12.0423 12.8957 12.4501 12.8957 12.7219 12.6533L13.2928 12.0878C13.5374 11.8185 13.5374 11.4145 13.2928 11.1722ZM2.96268 7.40197C1.57628 6.02854 1.57628 3.79335 2.96268 2.39299C4.34909 0.992631 6.6054 1.01956 8.01899 2.39299C9.43259 3.76642 9.4054 6.00161 8.01899 7.40197C6.63259 8.80233 4.34909 8.80233 2.96268 7.40197Z" fill="#54585D"/>
</svg>
