<svg width="121" height="60" viewBox="0 0 121 60" fill="none" xmlns="http://www.w3.org/2000/svg">
<path d="M58.5898 0.0419922H0V59.9316H58.5898V0.0419922Z" fill="#0055A6"/>
<path d="M119.24 0H62.2982V60H121V0H119.24Z" fill="#0055A6"/>
<path d="M117.481 3.60107H65.8214V56.3989H117.481V3.60107Z" fill="white"/>
<path d="M31.6856 42.2706C31.0411 41.4659 30.717 40.4128 30.717 39.1388C30.717 37.8293 31.0295 36.7762 31.6431 36.0071C32.3107 35.163 33.2986 34.737 34.5759 34.737H34.6724V32.5519H34.5759C32.5847 32.5519 31.0488 33.1909 30.0069 34.4452C29.0615 35.5811 28.583 37.1667 28.583 39.1546C28.583 41.0754 29.104 42.6531 30.1304 43.8483C31.2109 45.1025 32.7159 45.7415 34.6068 45.7415H34.7032V43.5564H34.6068C33.3565 43.5564 32.3763 43.1265 31.6856 42.2706ZM24.1028 42.2706C23.4584 41.4659 23.1304 40.4128 23.1304 39.1388C23.1304 37.8293 23.4429 36.7762 24.0565 36.0071C24.7241 35.163 25.712 34.737 26.9893 34.737H27.0857V32.5519H26.9893C24.9981 32.5519 23.4622 33.1909 22.4203 34.4452C21.4749 35.5811 20.9964 37.1667 20.9964 39.1546C20.9964 41.0754 21.5173 42.6531 22.5438 43.8483C23.6243 45.1025 25.1293 45.7415 27.0201 45.7415H27.1166V43.5564H27.0201C25.7737 43.5564 24.7897 43.1265 24.1028 42.2706ZM31.072 21.015V27.0931H33.3372V14.5109H31.072V18.893H29.841C29.3316 18.893 28.9535 18.7746 28.7142 18.5419C28.5406 18.3763 28.4557 18.1554 28.4557 17.8675V14.5109H26.1905V18.1041C26.1905 18.9324 26.5108 19.6305 27.1436 20.1867C27.7688 20.7349 28.5328 21.015 29.4204 21.015H31.072ZM52.7398 32.2561L52.5816 32.4257C52.5816 32.4257 48.3676 36.9221 48.0551 37.2535V32.8556H46.0754V45.3628H48.0551V40.2235C48.1052 40.1683 50.6405 37.427 50.9222 37.1194C50.9377 37.569 51.2078 45.3628 51.2078 45.3628H53.226L52.7398 32.2561ZM37.9254 27.0891H40.1906V16.6013H42.1008V14.5109H36.0461V16.6013H37.9254V27.0891ZM43.1388 32.4257C43.1388 32.4257 38.9249 36.9221 38.6123 37.2535V32.8556H36.6327V45.3628H38.6123V40.2235C38.6625 40.1683 41.1978 37.427 41.4795 37.1194C41.4949 37.569 41.765 45.3628 41.765 45.3628H43.7832L43.297 32.2561L43.1388 32.4257ZM47.2138 16.6013H48.0319C48.6146 16.6013 49.0159 16.7788 49.259 17.1496C49.4558 17.4572 49.5948 18.0489 49.6835 18.8614H47.1559C47.1637 18.605 47.2061 16.8419 47.2138 16.6013ZM47.1173 20.9479C47.3643 20.9479 49.7144 20.9479 49.9421 20.9479C49.9691 21.2043 50.5788 27.0891 50.5788 27.0891H52.8594L51.8136 17.8911C51.8136 16.6842 51.4509 15.777 50.7331 15.2011C50.162 14.7397 49.3787 14.503 48.4062 14.503H45.0528L44.6361 27.0852H46.9012C46.8974 27.0891 47.1058 21.224 47.1173 20.9479ZM7.64455 16.6013H10.45V27.0891H12.7152V14.5069H5.38323V27.0891H7.64841V16.6013H7.64455ZM8.70575 39.6871C8.54368 40.0065 8.35459 40.1683 8.14235 40.1683C7.93783 40.1683 7.76418 40.0302 7.61754 39.7423C7.45933 39.4386 7.37829 38.9929 7.37829 38.421V34.741H7.46319C7.93011 34.741 8.28899 35.0052 8.55526 35.5456C8.82924 36.1057 8.96816 36.9971 8.96816 38.204C8.96816 38.843 8.87941 39.3439 8.70575 39.6871ZM7.46705 32.8753H5.3678V45.3589H7.37829V41.7302C7.76804 42.0773 8.19252 42.2863 8.65945 42.2863C9.32704 42.2863 9.88658 41.9235 10.3149 41.2135C10.7973 40.4128 11.0404 39.2256 11.0404 37.6873C11.0404 36.6145 10.8436 35.656 10.4577 34.8356C9.85185 33.534 8.84468 32.8753 7.46705 32.8753ZM20.9385 24.0126C20.6452 24.8291 20.2285 25.2235 19.6728 25.2235C19.1364 25.2235 18.7351 24.8212 18.4379 23.9968C18.1292 23.133 17.971 22.0405 17.971 20.7428C17.971 19.4136 18.1254 18.3171 18.4263 17.4888C18.7158 16.696 19.121 16.3095 19.6689 16.3095C20.2825 16.3095 20.7185 16.7 21.0041 17.5006C21.2665 18.2382 21.4016 19.315 21.4016 20.7034C21.4054 22.0484 21.2472 23.1606 20.9385 24.0126ZM22.6866 25.4365C23.358 24.2493 23.6976 22.6597 23.6976 20.7073C23.6976 18.7786 23.3465 17.2009 22.6519 16.0137C21.9418 14.8028 20.9385 14.1914 19.6651 14.1914C18.4572 14.1914 17.5002 14.8107 16.8133 16.0255C16.1419 17.2127 15.8023 18.7944 15.8023 20.727C15.8023 22.7228 16.1264 24.336 16.7709 25.5193C17.4269 26.7341 18.4032 27.3494 19.6651 27.3494C20.9501 27.3455 21.9688 26.7026 22.6866 25.4365ZM17.0178 42.3494C16.7516 43.1738 16.3618 43.5879 15.8602 43.5879C15.3778 43.5879 14.9958 43.1659 14.7334 42.3297C14.4555 41.462 14.3166 40.3615 14.3166 39.056C14.3166 37.7189 14.4555 36.6184 14.7257 35.7823C14.9842 34.9816 15.3662 34.5753 15.8602 34.5753C16.4197 34.5753 16.821 34.9737 17.0796 35.798C17.315 36.5435 17.4385 37.6282 17.4385 39.0205C17.4346 40.3734 17.2957 41.4935 17.0178 42.3494ZM18.5151 34.3584C17.8861 33.1633 16.9947 32.5559 15.864 32.5559C14.7951 32.5559 13.9423 33.1672 13.3326 34.3702C12.7345 35.5535 12.4296 37.1233 12.4296 39.0402C12.4296 41.0281 12.719 42.6295 13.294 43.8049C13.8767 45.0039 14.7411 45.6113 15.864 45.6113C17.0063 45.6113 17.9054 44.9763 18.546 43.7181C19.1441 42.5427 19.449 40.9611 19.449 39.0205C19.4451 37.1075 19.1325 35.5377 18.5151 34.3584Z" fill="white"/>
<path d="M80.1032 19.4097C80.5354 20.3918 81.2493 21.3936 83.1904 22.7505C83.6225 23.0542 84.1049 23.6852 83.7383 24.5727C83.3717 25.4602 82.6887 26.7223 83.0977 27.2114C83.5106 27.7044 84.9693 27.9608 86.1617 27.4678C86.1617 27.4678 86.4125 28.2369 86.8486 28.7299C86.8486 28.7299 86.6441 29.152 85.9572 28.9429C85.9572 28.9429 86.208 29.574 85.8646 30.2524C85.8646 30.2524 85.0658 30.1144 84.7223 29.365C84.7223 29.365 84.4021 29.9487 83.7653 30.1578C83.7653 30.1578 83.2367 29.8777 83.3524 28.8049C83.3524 28.8049 82.9627 29.7633 81.7741 29.9251C81.7741 29.9251 81.0872 29.0376 81.9787 27.8464C81.9787 27.8464 81.3381 28.4302 80.1727 28.1501C80.1727 28.1501 79.9913 27.5427 81.0409 26.7026C81.0409 26.7026 79.8524 26.6553 79.3932 25.6298C79.3932 25.6298 79.8948 24.9987 81.1297 25.1407C81.1297 25.1407 79.9875 24.8843 79.7366 23.4801C79.7366 23.4801 80.5586 22.9437 81.8629 23.8075C81.8629 23.8075 81.6352 23.3618 81.0872 22.9201C80.5393 22.4704 79.8756 21.2319 80.1032 19.4097Z" fill="#0055A6"/>
<path d="M84.8883 33.5025C84.7147 33.2659 84.5873 33.0332 84.4908 32.8083C84.6954 34.5083 84.7687 35.6561 85.6678 36.7565C85.6678 36.7565 86.2081 36.019 85.8608 34.2283C85.7103 34.1809 85.5405 34.11 85.3784 33.9995C85.3784 33.9995 85.5829 34.7253 85.4556 35.4589C85.4517 35.4549 85.1276 35.2143 84.8883 33.5025Z" fill="#0055A6"/>
<path d="M83.3331 33.325C83.2251 33.187 83.0205 32.8951 82.9125 32.686C82.8392 33.6721 82.5845 36.2714 83.4335 37.0839C83.4335 37.0839 84.0161 36.6461 84.2245 32.8596C84.101 33.0726 83.8849 33.2974 83.7808 33.4197C83.7808 33.4197 83.9235 34.6227 83.4991 35.4707C83.4991 35.4667 83.0746 35.1394 83.3331 33.325Z" fill="#0055A6"/>
<path d="M81.3034 35.309C82.0212 34.4334 82.2334 31.8104 82.2334 31.8104C82.3337 31.7434 82.4302 31.6685 82.5305 31.5856C82.573 31.5501 82.6116 31.5186 82.6502 31.4791C82.6502 31.5738 82.654 31.6724 82.6618 31.771C82.5576 33.3487 82.4379 34.9777 81.9556 35.7863C81.4809 36.5791 80.6165 36.9932 80.6165 36.9932C79.8023 35.5141 80.7863 33.5223 81.6121 32.1418C81.7125 32.1023 81.8166 32.055 81.9208 31.9998C81.6276 33.0687 81.0796 34.3348 81.3034 35.309Z" fill="#0055A6"/>
<path d="M79.2852 30.7533C79.2814 30.923 79.3122 31.061 79.3315 31.132C79.3392 31.1596 79.3508 31.199 79.3701 31.2385C78.6871 31.9248 78.1816 32.5756 77.1705 34.0152C76.1556 35.451 74.5542 35.5101 74.5542 35.5101C74.7086 34.3466 75.0173 33.4276 75.8739 32.4336C76.7306 31.4436 77.8304 30.5364 78.6369 29.9369C78.8453 30.0355 79.1154 30.0947 79.4589 30.0552C79.4859 30.0513 79.509 30.0473 79.536 30.0434C79.428 30.1854 79.3624 30.3313 79.3277 30.4654C78.718 30.8243 76.9467 31.7434 76.229 33.2225C76.229 33.2264 77.3519 32.8675 79.2852 30.7533Z" fill="#0055A6"/>
<path d="M78.0156 29.3057L78.0812 29.1835C78.1043 29.144 78.1275 29.1046 78.1506 29.0691C77.4946 29.3334 75.1445 30.2366 74.3843 30.6389C73.6241 31.0412 72.5243 31.9563 71.9301 33.814C71.9301 33.814 73.5122 33.96 74.8204 32.8556C76.1285 31.7472 77.649 30.205 78.3011 29.712C78.2355 29.6489 78.1853 29.5897 78.1506 29.5424C78.1506 29.5424 76.3832 31.1438 74.5117 31.834C74.5117 31.834 74.913 31.0925 75.65 30.5521C76.553 29.8974 77.2245 29.6805 78.0156 29.3057Z" fill="#0055A6"/>
<path d="M76.6727 28.2132C76.6959 28.1501 76.7229 28.087 76.7499 28.0278C75.9743 28.1895 74.0409 28.4262 73.1727 28.6984C72.3083 28.9705 70.7454 29.6174 69.8154 31.4238C69.8154 31.4238 71.1776 31.8538 73.7477 30.6153C76.3177 29.3807 77.1242 29.1243 77.6143 28.9942C77.2207 28.9626 76.9467 28.8285 76.8001 28.7378C75.7775 29.2032 74.4037 29.7554 73.0415 29.7909C73.0415 29.7909 73.7129 29.3058 74.4191 29.0021C75.1909 28.6786 76.0321 28.3789 76.6727 28.2132Z" fill="#0055A6"/>
<path d="M76.7383 26.9117C76.9892 27.034 77.1821 27.0931 77.5101 27.1286C77.3326 27.247 77.159 27.3968 77.0085 27.598C76.1016 27.8662 74.5581 28.1581 72.0112 28.3435C69.4643 28.5328 68.106 28.0516 68.106 28.0516C68.9935 27.4994 70.4097 26.9354 71.3667 26.746C72.3237 26.5567 74.8359 26.5764 75.9395 26.4226C75.9511 26.4344 76.0862 26.5488 76.3023 26.679C75.3761 26.7618 73.4004 26.8604 72.3816 27.385C72.3816 27.3889 74.2609 27.6453 76.7383 26.9117Z" fill="#0055A6"/>
<path d="M76.5454 25.4129C76.6727 25.334 76.8271 25.259 77.0162 25.188C75.7273 24.7897 73.956 24.1507 71.2934 23.9732C69.3369 23.843 67.9284 23.9574 67.1991 24.1507C67.1991 24.1507 68.9781 25.4326 71.0117 25.8862C73.0453 26.3398 74.697 26.0518 75.9048 26.0597C75.9858 25.9374 76.0746 25.8033 76.2174 25.6653C74.805 25.6732 72.4549 25.3024 71.6137 25.0145C71.6175 25.0145 73.6666 24.5767 76.5454 25.4129Z" fill="#0055A6"/>
<path d="M76.5415 23.8627C76.5492 23.8982 76.6997 24.6437 77.5409 25.0539C75.7311 24.2414 72.1654 23.776 70.2476 22.9635C67.6544 21.863 67.1836 20.4904 67.1836 20.4904C69.4256 20.4312 71.2393 20.9913 72.6362 21.4291C74.2724 21.9419 76.7653 22.8925 77.6374 23.2908C77.3094 23.3027 76.9544 23.4013 76.6495 23.6064C75.4301 23.1291 74.8628 22.928 73.7592 22.6124C72.8871 22.3639 72.2426 22.3127 71.6947 22.2614C71.6947 22.2614 72.4626 22.782 73.7283 23.1962C74.9786 23.5985 75.5227 23.6655 76.5415 23.8627Z" fill="#0055A6"/>
<path d="M76.4025 21.8432C76.4758 21.9734 76.6881 22.2889 76.773 22.4151C73.9097 21.9261 70.7608 19.7094 69.7883 18.3407C68.8159 16.9681 69.0937 14.9171 69.0937 14.9171C70.0353 15.1143 72.0883 16.9208 72.6208 17.4651C73.1533 18.0094 74.7586 19.6029 75.87 20.4982L76.2173 21.5277C75.2641 20.7467 74.1335 19.8711 73.4312 19.3307C72.8909 18.9126 72.0767 18.321 71.274 18.041C71.274 18.041 72.0188 19.031 72.6169 19.5122C73.3077 20.0723 74.0138 20.5574 74.5927 20.8808C75.0982 21.1648 75.3606 21.3265 76.4025 21.8432Z" fill="#0055A6"/>
<path d="M84.4792 30.0355C84.568 29.9606 84.6413 29.8817 84.703 29.8107C84.8342 29.9803 85.278 30.5482 85.4941 31.1083C85.66 31.5895 85.8337 32.2403 85.9225 32.619C86.0112 32.9937 86.2698 33.7668 86.428 34.035C86.428 34.035 85.7295 34.1257 85.2163 33.5104C84.7108 32.903 84.5371 32.2955 84.4561 31.6724C84.3943 31.1793 84.4136 30.5009 84.4792 30.0355Z" fill="#0055A6"/>
<path d="M83.3795 30.1262C83.5107 30.3037 83.6342 30.3747 83.6458 30.3826L83.7384 30.4339L83.8387 30.4023C83.9236 30.3747 84.0047 30.3392 84.0819 30.3037C84.1822 30.5916 84.2246 30.7336 84.2478 30.9782C84.2825 31.3016 84.3443 31.8183 84.2246 32.2364C84.078 32.7452 83.7809 33.0568 83.6149 33.254C83.6149 33.254 83.1596 32.7413 83.0284 32.3153C82.8933 31.8735 82.8431 31.3568 83.0129 30.8283C83.1017 30.5404 83.2483 30.2761 83.3795 30.1262Z" fill="#0055A6"/>
<path d="M81.805 30.1774C82.272 30.1143 82.627 29.9408 82.8894 29.7396C82.9473 29.9092 83.0399 30.134 82.9704 30.4535C82.901 30.773 82.6849 31.128 82.3723 31.3844C81.9015 31.767 81.2725 32.1298 80.5779 32.0194C80.5818 32.0233 80.4197 31.4869 81.805 30.1774Z" fill="#0055A6"/>
<path d="M81.2802 29.2861C81.3381 29.7594 81.5581 30.0592 81.5774 30.0829C81.4153 30.2801 80.8287 31.3135 79.6016 31.1399C79.6016 31.1399 79.2698 30.4379 80.0878 29.8817C80.6397 29.4991 80.8982 29.4242 81.2802 29.2861Z" fill="#0055A6"/>
<path d="M81.3844 28.4065C81.0564 28.4894 80.6319 28.5249 80.1148 28.3986L79.9759 28.3631L79.9335 28.2251C79.3045 28.7497 78.5558 28.8365 78.3011 29.3098C78.3011 29.3098 78.6137 29.9054 79.4318 29.8067C80.246 29.7081 80.8596 29.3177 81.2957 28.7576C81.3111 28.6669 81.3458 28.513 81.3844 28.4065Z" fill="#0055A6"/>
<path d="M79.9721 27.669C80.0878 27.4954 80.1689 27.2233 80.412 26.9472C79.8717 26.8525 79.3855 26.8446 78.7527 26.9669C78.0002 27.1128 77.2323 27.2943 76.8502 28.4618C76.8502 28.4618 77.3326 28.8838 78.2086 28.6984C78.9533 28.5446 79.6055 28.2172 79.9721 27.669Z" fill="#0055A6"/>
<path d="M79.6557 26.3989C79.4666 26.2332 79.2929 26.0123 79.1656 25.7323L79.1 25.5864C78.4478 25.3142 77.7686 25.1762 77.1049 25.4286C76.4412 25.681 76.2637 25.9768 76.0939 26.2293C76.0939 26.2293 76.8309 26.8604 77.6799 26.884C78.5327 26.9077 79.3161 26.6592 79.6557 26.3989Z" fill="#0055A6"/>
<path d="M79.8524 25.0302C79.9643 24.9868 80.0917 24.9474 80.2345 24.9158C79.945 24.6555 79.6595 24.2611 79.5244 23.6694C79.2234 23.7404 78.5095 23.7404 78.197 23.6182C77.8844 23.4959 77.267 23.488 76.7885 23.8154C76.7885 23.8154 76.9505 24.6752 78.0387 24.9671C79.0575 25.2471 79.4357 25.1722 79.8524 25.0302Z" fill="#0055A6"/>
<path d="M79.4588 23.35L79.6016 23.2553C79.6209 23.2435 79.864 23.0896 80.2807 23.0581C79.9296 22.7899 79.096 22.076 78.5056 21.7368C77.8612 21.366 76.7923 20.8769 76.2482 20.8059C76.2482 20.8059 76.7575 22.1746 77.3518 22.7268C77.9692 23.2987 78.4014 23.5117 79.4588 23.35Z" fill="#0055A6"/>
<path d="M80.5586 22.7228C80.2962 22.3757 80.0917 21.8985 79.9412 21.3384C79.8177 20.8808 79.5399 19.7449 79.3701 19.4491C79.2042 19.1533 78.6022 18.1238 77.4252 17.8043C77.4252 17.8043 77.1126 19.1454 77.703 20.2103C78.2163 21.1214 79.262 22.0878 80.5586 22.7228Z" fill="#0055A6"/>
<path d="M87.0763 28.9666C87.223 29.1165 87.3349 29.1993 87.5973 29.3335C87.5973 29.3335 87.9716 30.0671 87.5201 30.9467C87.0647 31.8302 86.6827 32.7334 86.4975 33.2304C86.4975 33.2304 86.2544 33.1949 85.9843 31.8104C85.799 30.8717 85.5675 30.639 85.3282 30.3195C85.5907 30.4576 85.8067 30.497 85.8222 30.501L86.0036 30.5325L86.0846 30.3668C86.2467 30.0474 86.293 29.7397 86.293 29.4873C86.293 29.4044 86.2853 29.3256 86.2775 29.2546C86.6982 29.2664 86.922 29.0455 87.0107 28.9351C87.0184 28.9232 87.0262 28.9154 87.03 28.9075L87.0763 28.9666Z" fill="#0055A6"/>
<path d="M77.0972 18.3645C77.0933 18.4907 77.0895 18.6366 77.0933 18.7865L77.1165 19.1139C76.4257 18.2107 75.5922 17.1181 74.8011 16.1123C74.257 15.4221 73.8017 15.0079 73.2884 14.6687C73.7168 15.9467 74.4886 16.9643 75.0327 17.4731C75.5768 17.9819 76.364 18.8378 77.1319 19.3624L77.2052 19.6227C77.267 19.8594 77.3557 20.1039 77.4831 20.3327C77.6606 20.6561 77.8998 20.9756 78.1777 21.2793C77.9539 21.1689 77.6953 21.0466 77.4406 20.9322L77.2014 20.8296C75.0867 19.6858 72.9874 17.3114 72.1385 15.6548C71.2895 14.0021 71.6407 12.0852 71.8684 11.0558C72.8254 11.888 74.2107 13.5249 74.8127 14.4163C75.5536 15.5088 76.5029 17.0589 77.0895 18.3211V18.3645H77.0972Z" fill="#0055A6"/>
<path d="M106.757 25.4129C106.629 25.334 106.475 25.259 106.282 25.188C107.571 24.7897 109.342 24.1507 112.005 23.9732C113.961 23.843 115.37 23.9574 116.099 24.1507C116.099 24.1507 114.32 25.4326 112.287 25.8862C110.253 26.3398 108.601 26.0518 107.393 26.0597C107.312 25.9374 107.224 25.8033 107.081 25.6653C108.493 25.6732 110.843 25.3024 111.685 25.0145C111.685 25.0145 109.635 24.5767 106.757 25.4129Z" fill="#0055A6"/>
<path d="M106.761 23.8627C106.753 23.8982 106.606 24.6437 105.761 25.0539C107.571 24.2414 111.137 23.776 113.054 22.9635C115.648 21.863 116.118 20.4904 116.118 20.4904C113.876 20.4312 112.063 20.9913 110.666 21.4291C109.03 21.9419 106.537 22.8925 105.665 23.2908C105.993 23.3027 106.348 23.4013 106.649 23.6064C107.868 23.1291 108.435 22.928 109.539 22.6124C110.411 22.3639 111.059 22.3127 111.604 22.2614C111.604 22.2614 110.836 22.782 109.57 23.1962C108.32 23.5985 107.779 23.6655 106.761 23.8627Z" fill="#0055A6"/>
<path d="M106.9 21.8432C106.826 21.9734 106.614 22.2889 106.529 22.4151C109.392 21.9261 112.541 19.7094 113.514 18.3407C114.486 16.9681 114.208 14.9171 114.208 14.9171C113.263 15.1143 111.214 16.9208 110.681 17.4651C110.149 18.0094 108.543 19.6029 107.436 20.4982L107.089 21.5277C108.042 20.7467 109.172 19.8711 109.875 19.3307C110.415 18.9126 111.225 18.321 112.036 18.041C112.036 18.041 111.291 19.031 110.693 19.5122C110.002 20.0723 109.3 20.5574 108.717 20.8808C108.204 21.1648 107.938 21.3265 106.9 21.8432Z" fill="#0055A6"/>
<path d="M106.205 18.3645C106.209 18.4907 106.213 18.6366 106.205 18.7865L106.182 19.1139C106.876 18.2107 107.706 17.1181 108.501 16.1123C109.045 15.4221 109.501 15.0079 110.014 14.6687C109.585 15.9467 108.817 16.9643 108.27 17.4731C107.725 17.9819 106.938 18.8378 106.17 19.3624L106.097 19.6227C106.035 19.8594 105.946 20.1039 105.819 20.3327C105.638 20.6561 105.402 20.9756 105.125 21.2793C105.348 21.1689 105.607 21.0466 105.862 20.9322L106.101 20.8296C108.216 19.6858 110.315 17.3114 111.164 15.6548C112.013 14.0021 111.662 12.0852 111.434 11.0558C110.473 11.888 109.091 13.5249 108.489 14.4163C107.749 15.5088 106.799 17.0589 106.213 18.3211V18.3645H106.205Z" fill="#0055A6"/>
<path d="M79.7984 31.4159C78.9263 32.3073 77.0894 34.3071 77.2631 36.4764C77.2631 36.4764 78.9687 35.9321 79.671 34.6502C80.3734 33.3723 80.8094 32.5716 81.1027 32.2797C80.9136 32.3073 80.7207 32.3073 80.5393 32.2758L80.3849 32.2482C79.9527 33.0528 79.0922 34.3741 78.3204 34.8356C78.3204 34.8356 78.1236 33.7667 80.3927 31.5974C80.4274 31.5106 80.4698 31.408 80.5354 31.2976C80.3271 31.3725 80.0917 31.4199 79.8254 31.412" fill="#0055A6"/>
<path d="M103.199 19.4097C102.763 20.3918 102.049 21.3936 100.112 22.7505C99.6756 23.0542 99.1971 23.6852 99.5637 24.5727C99.9303 25.4602 100.613 26.7223 100.204 27.2114C99.7914 27.7044 98.3288 27.9608 97.1442 27.4678C97.1442 27.4678 96.8933 28.2369 96.4573 28.7299C96.4573 28.7299 96.6618 29.152 97.3487 28.9429C97.3487 28.9429 97.0978 29.574 97.4413 30.2524C97.4413 30.2524 98.2401 30.1144 98.5835 29.365C98.5835 29.365 98.9038 29.9487 99.5444 30.1578C99.5444 30.1578 100.069 29.8777 99.9573 28.8049C99.9573 28.8049 100.347 29.7633 101.532 29.9251C101.532 29.9251 102.219 29.0376 101.327 27.8464C101.327 27.8464 101.968 28.4302 103.133 28.1501C103.133 28.1501 103.315 27.5427 102.265 26.7026C102.265 26.7026 103.453 26.6553 103.913 25.6298C103.913 25.6298 103.407 24.9987 102.176 25.1407C102.176 25.1407 103.318 24.8843 103.569 23.4801C103.569 23.4801 102.747 22.9437 101.443 23.8075C101.443 23.8075 101.671 23.3618 102.219 22.9201C102.763 22.4704 103.426 21.2319 103.199 19.4097Z" fill="#0055A6"/>
<path d="M98.4138 33.5025C98.5875 33.2659 98.7148 33.0332 98.8113 32.8083C98.6068 34.5083 98.5335 35.6561 97.6343 36.7565C97.6343 36.7565 97.0941 36.019 97.4414 34.2283C97.5919 34.1809 97.7617 34.11 97.9238 33.9995C97.9238 33.9995 97.7192 34.7253 97.8466 35.4589C97.8504 35.4549 98.1746 35.2143 98.4138 33.5025Z" fill="#0055A6"/>
<path d="M99.9651 33.325C100.073 33.187 100.278 32.8951 100.39 32.686C100.463 33.6721 100.718 36.2714 99.8686 37.0839C99.8686 37.0839 99.2859 36.6461 99.0775 32.8596C99.201 33.0726 99.4171 33.2974 99.5213 33.4197C99.5213 33.4197 99.3785 34.6227 99.803 35.4707C99.803 35.4667 100.227 35.1394 99.9651 33.325Z" fill="#0055A6"/>
<path d="M101.995 35.309C101.277 34.4334 101.065 31.8104 101.065 31.8104C100.964 31.7434 100.868 31.6685 100.768 31.5856C100.725 31.5501 100.687 31.5186 100.648 31.4791C100.648 31.5738 100.644 31.6724 100.636 31.771C100.741 33.3487 100.86 34.9777 101.343 35.7863C101.817 36.5791 102.682 36.9932 102.682 36.9932C103.496 35.5141 102.512 33.5223 101.69 32.1418C101.586 32.1023 101.485 32.055 101.381 31.9998C101.675 33.0687 102.222 34.3348 101.995 35.309Z" fill="#0055A6"/>
<path d="M104.017 30.7533C104.021 30.923 103.99 31.061 103.971 31.132C103.963 31.1596 103.951 31.199 103.932 31.2385C104.611 31.9248 105.121 32.5756 106.132 34.0152C107.143 35.451 108.748 35.5101 108.748 35.5101C108.594 34.3466 108.285 33.4276 107.428 32.4336C106.572 31.4436 105.472 30.5364 104.669 29.9369C104.461 30.0355 104.191 30.0947 103.851 30.0552C103.824 30.0513 103.797 30.0473 103.77 30.0434C103.878 30.1854 103.944 30.3313 103.982 30.4654C104.592 30.8243 106.363 31.7434 107.081 33.2225C107.073 33.2264 105.95 32.8675 104.017 30.7533Z" fill="#0055A6"/>
<path d="M105.287 29.3057L105.221 29.1835C105.198 29.144 105.175 29.1046 105.151 29.0691C105.807 29.3334 108.158 30.2366 108.918 30.6389C109.678 31.0412 110.774 31.9563 111.372 33.814C111.372 33.814 109.79 33.96 108.482 32.8556C107.174 31.7472 105.653 30.205 105.001 29.712C105.067 29.6489 105.117 29.5897 105.151 29.5424C105.151 29.5424 106.919 31.1438 108.79 31.834C108.79 31.834 108.389 31.0925 107.652 30.5521C106.749 29.8974 106.074 29.6805 105.287 29.3057Z" fill="#0055A6"/>
<path d="M106.629 28.2132C106.602 28.1501 106.575 28.087 106.548 28.0278C107.324 28.1895 109.261 28.4262 110.126 28.6984C110.99 28.9705 112.553 29.6174 113.483 31.4238C113.483 31.4238 112.121 31.8538 109.551 30.6153C106.981 29.3807 106.178 29.1243 105.684 28.9942C106.074 28.9626 106.352 28.8285 106.498 28.7378C107.525 29.2032 108.895 29.7554 110.257 29.7909C110.257 29.7909 109.585 29.3058 108.879 29.0021C108.111 28.6786 107.27 28.3789 106.629 28.2132Z" fill="#0055A6"/>
<path d="M106.564 26.9117C106.313 27.034 106.116 27.0931 105.788 27.1286C105.966 27.247 106.139 27.3968 106.29 27.598C107.197 27.8662 108.74 28.1581 111.287 28.3435C113.834 28.5328 115.192 28.0516 115.192 28.0516C114.305 27.4994 112.889 26.9354 111.932 26.746C110.975 26.5567 108.459 26.5764 107.359 26.4226C107.347 26.4344 107.212 26.5488 106.996 26.679C107.922 26.7618 109.898 26.8604 110.917 27.385C110.921 27.3889 109.041 27.6453 106.564 26.9117Z" fill="#0055A6"/>
<path d="M98.8228 30.0355C98.7341 29.9606 98.6608 29.8817 98.5952 29.8107C98.464 29.9803 98.0241 30.5482 97.8041 31.1083C97.6382 31.5895 97.4607 32.2403 97.3758 32.619C97.287 32.9937 97.0285 33.7668 96.8702 34.035C96.8702 34.035 97.5687 34.1257 98.0858 33.5104C98.5952 32.903 98.765 32.2955 98.846 31.6724C98.9077 31.1793 98.8884 30.5009 98.8228 30.0355Z" fill="#0055A6"/>
<path d="M99.9227 30.1262C99.7953 30.3037 99.668 30.3747 99.6564 30.3826L99.5638 30.4339L99.4635 30.4023C99.3786 30.3747 99.2975 30.3392 99.2242 30.3037C99.1239 30.5916 99.0814 30.7336 99.0583 30.9782C99.0235 31.3016 98.9618 31.8183 99.0814 32.2364C99.2281 32.7452 99.5252 33.0568 99.6911 33.254C99.6911 33.254 100.146 32.7413 100.278 32.3153C100.413 31.8735 100.463 31.3568 100.293 30.8283C100.201 30.5404 100.054 30.2761 99.9227 30.1262Z" fill="#0055A6"/>
<path d="M101.497 30.1774C101.03 30.1143 100.675 29.9408 100.409 29.7396C100.351 29.9092 100.258 30.134 100.328 30.4535C100.393 30.773 100.613 31.128 100.926 31.3844C101.393 31.767 102.026 32.1298 102.72 32.0194C102.72 32.0233 102.878 31.4869 101.497 30.1774Z" fill="#0055A6"/>
<path d="M102.022 29.2861C101.968 29.7594 101.744 30.0592 101.725 30.0829C101.887 30.2801 102.473 31.3135 103.701 31.1399C103.701 31.1399 104.032 30.4379 103.214 29.8817C102.662 29.4991 102.4 29.4242 102.022 29.2861Z" fill="#0055A6"/>
<path d="M101.914 28.4065C102.242 28.4894 102.666 28.5249 103.187 28.3986L103.326 28.3631L103.369 28.2251C103.998 28.7497 104.742 28.8365 105.001 29.3098C105.001 29.3098 104.688 29.9054 103.874 29.8067C103.06 29.7081 102.442 29.3177 102.01 28.7576C101.991 28.6669 101.952 28.513 101.914 28.4065Z" fill="#0055A6"/>
<path d="M103.33 27.669C103.21 27.4954 103.133 27.2233 102.886 26.9472C103.426 26.8525 103.917 26.8446 104.546 26.9669C105.298 27.1128 106.066 27.2943 106.448 28.4618C106.448 28.4618 105.966 28.8838 105.09 28.6984C104.345 28.5446 103.697 28.2172 103.33 27.669Z" fill="#0055A6"/>
<path d="M103.646 26.3989C103.836 26.2332 104.009 26.0123 104.133 25.7323L104.198 25.5864C104.85 25.3142 105.53 25.1762 106.193 25.4286C106.861 25.681 107.035 25.9768 107.204 26.2293C107.204 26.2293 106.467 26.8604 105.618 26.884C104.769 26.9077 103.986 26.6592 103.646 26.3989Z" fill="#0055A6"/>
<path d="M103.45 25.0302C103.338 24.9868 103.214 24.9474 103.072 24.9158C103.361 24.6555 103.643 24.2611 103.782 23.6694C104.086 23.7404 104.796 23.7404 105.109 23.6182C105.422 23.4959 106.035 23.488 106.518 23.8154C106.518 23.8154 106.359 24.6752 105.271 24.9671C104.245 25.2471 103.863 25.1722 103.45 25.0302Z" fill="#0055A6"/>
<path d="M103.839 23.35L103.697 23.2553C103.677 23.2435 103.434 23.0896 103.017 23.0581C103.369 22.7899 104.202 22.076 104.793 21.7368C105.437 21.366 106.506 20.8769 107.05 20.8059C107.05 20.8059 106.541 22.1746 105.946 22.7268C105.329 23.2987 104.897 23.5117 103.839 23.35Z" fill="#0055A6"/>
<path d="M102.74 22.7228C102.998 22.3757 103.207 21.8985 103.357 21.3384C103.481 20.8808 103.762 19.7449 103.928 19.4491C104.094 19.1533 104.696 18.1238 105.873 17.8043C105.873 17.8043 106.186 19.1454 105.595 20.2103C105.082 21.1214 104.04 22.0878 102.74 22.7228Z" fill="#0055A6"/>
<path d="M96.2219 28.9666C96.0714 29.1165 95.9634 29.1993 95.701 29.3335C95.701 29.3335 95.3266 30.0671 95.7781 30.9467C96.2335 31.8302 96.6155 32.7334 96.8007 33.2304C96.8007 33.2304 97.0438 33.1949 97.314 31.8104C97.4992 30.8717 97.7307 30.639 97.97 30.3195C97.7076 30.4576 97.4915 30.497 97.476 30.501L97.2947 30.5325L97.2098 30.3668C97.0477 30.0474 97.0014 29.7397 97.0014 29.4873C97.0014 29.4044 97.0091 29.3256 97.0168 29.2546C96.5962 29.2664 96.3724 29.0455 96.2836 28.9351C96.2759 28.9232 96.2682 28.9154 96.2644 28.9075L96.2219 28.9666Z" fill="#0055A6"/>
<path d="M103.5 31.4159C104.372 32.3073 106.209 34.3071 106.035 36.4764C106.035 36.4764 104.33 35.9321 103.627 34.6502C102.925 33.3723 102.489 32.5716 102.196 32.2797C102.385 32.3073 102.574 32.3073 102.759 32.2758L102.913 32.2482C103.346 33.0528 104.206 34.3741 104.978 34.8356C104.978 34.8356 105.175 33.7667 102.906 31.5974C102.871 31.5106 102.825 31.408 102.763 31.2976C102.971 31.3725 103.207 31.4199 103.473 31.412" fill="#0055A6"/>
<path d="M90.3179 14.1205C90.3179 13.9627 90.916 13.8286 91.6531 13.8286C92.3901 13.8286 92.9844 13.9588 92.9844 14.1205C92.9844 14.2822 92.3862 14.4084 91.6531 14.4084C90.916 14.4124 90.3179 14.2822 90.3179 14.1205Z" fill="#0055A6"/>
<path d="M85.7913 15.6902C85.7913 15.6035 86.1772 15.5325 86.6518 15.5325C87.1264 15.5325 87.5085 15.6035 87.5085 15.6902C87.5085 15.777 87.1226 15.848 86.6518 15.848C86.1772 15.848 85.7913 15.777 85.7913 15.6902Z" fill="#0055A6"/>
<path d="M91.9115 14.7594C91.9115 14.9093 91.7958 15.0276 91.6491 15.0276C91.5025 15.0276 91.3867 14.9093 91.3867 14.7594C91.3867 14.6095 91.5025 14.4912 91.6491 14.4912C91.7958 14.4912 91.9115 14.6135 91.9115 14.7594Z" fill="#0055A6"/>
<path d="M90.2214 13.8404C89.7776 12.7596 89.4804 11.9629 89.492 11.6947C89.4997 11.533 89.6888 11.4146 89.8625 11.3555C90.04 11.3003 90.1982 11.2884 90.314 11.3791C90.5455 11.5606 90.7577 13.02 90.8388 13.6234C90.615 13.6708 90.4838 13.7023 90.2214 13.8404Z" fill="#0055A6"/>
<path d="M91.0316 13.6037C91.1435 13.5919 91.2593 13.584 91.3751 13.5801C91.3056 13.0003 91.1088 12.0339 90.9931 11.6553C90.8773 11.2766 90.7307 11.0005 90.4875 10.9335C90.4875 10.9335 90.6766 11.462 90.7808 12.0103C90.885 12.5585 90.9622 13.0831 91.0316 13.6037Z" fill="#0055A6"/>
<path d="M89.6271 15.5403C90.1133 15.422 90.615 14.8856 90.615 14.8856C89.8278 15.0039 89.6271 15.5403 89.6271 15.5403ZM90.3603 15.489C89.6811 15.8953 88.9132 15.8322 88.9132 15.8322C89.0598 15.5561 89.1988 15.3037 89.6271 14.9881C90.0554 14.6765 90.75 14.5976 91.024 14.6371C90.9623 14.8501 90.6844 15.2958 90.3603 15.489Z" fill="#0055A6"/>
<path d="M87.8172 16.6369V16.5817C87.1457 16.6684 86.3546 16.6329 86.3546 16.6329C86.3971 16.8893 86.5013 17.0826 86.6788 17.2009C86.7174 16.6448 87.8172 16.6369 87.8172 16.6369ZM85.5906 15.9033C85.5906 15.9033 86.4357 16.2267 87.2846 16.1833C88.1336 16.1399 89.6926 16.1202 90.1981 15.8717C90.1981 15.8717 90.1132 16.1951 89.7119 16.3845C89.7119 16.3845 89.9241 16.3845 90.1325 16.5698C90.1325 16.5698 90.009 16.838 89.6502 16.98C89.6502 16.98 90.2946 17.6663 90.9853 17.6151C90.9853 17.6151 90.6689 18.0213 89.9589 17.8636C89.2527 17.7097 89.025 17.3035 88.9054 17.1457C88.9054 17.1457 88.998 17.5322 88.9556 17.69C88.9556 17.69 88.643 17.6703 88.3999 17.3587C88.3999 17.3587 88.5774 17.6703 88.6121 17.9346C88.6121 17.9346 88.4192 17.9582 88.068 17.7492C88.068 17.7492 88.1413 17.9424 88.1529 18.1673C88.1529 18.1673 87.3348 17.8991 86.9373 17.5204C86.9373 17.5204 86.9296 17.7807 86.9489 17.9306C86.9566 17.9306 85.687 17.7965 85.5906 15.9033Z" fill="#0055A6"/>
<path d="M85.3939 16.0334C85.4248 16.4436 85.5289 16.8498 85.6679 17.1378C85.6679 17.1378 85.1662 16.7512 85.0466 16.4278C84.9231 16.1004 84.8961 15.8796 85.3939 16.0334Z" fill="#0055A6"/>
<path d="M84.3943 17.5914C84.5101 17.5914 84.6027 17.4967 84.6027 17.3784C84.6027 17.2601 84.5101 17.1654 84.3943 17.1654C84.2786 17.1654 84.186 17.2601 84.186 17.3784C84.186 17.4967 84.2786 17.5914 84.3943 17.5914ZM85.6138 17.3429C85.9495 17.4967 86.2466 17.8675 86.2466 17.8675C85.7411 17.9858 85.5134 18.1357 85.5134 18.1357C84.5448 17.4376 83.746 18.1436 83.746 18.1436C83.2212 17.8399 83.117 17.0944 83.3795 16.7039C83.6419 16.3095 84.2323 16.3805 84.514 16.4476C84.6915 17.0195 85.3128 17.2049 85.6138 17.3429Z" fill="#0055A6"/>
<path d="M86.3586 17.9977C86.3586 17.9977 86.7136 18.4789 86.9683 18.6919C86.9683 18.6919 85.664 18.68 85.3321 19.8318C85.3321 19.8318 84.8806 19.1257 85.2125 18.6643C85.5675 18.1673 85.8917 18.1042 86.3586 17.9977Z" fill="#0055A6"/>
<path d="M87.7902 18.2855C87.7902 18.2855 88.2108 18.4118 88.3497 18.4473C88.3497 18.4473 88.3574 18.1988 88.3458 18.0804C88.4732 18.112 88.6314 18.1554 88.7665 18.1672C88.7665 18.1672 89.1871 19.1257 89.5151 19.5122C89.5151 19.5122 89.5344 19.7252 89.3492 20.0486C89.3492 20.0486 89.1099 19.4807 88.6816 19.0271C88.4462 18.7667 88.2918 18.6405 87.7902 18.2855Z" fill="#0055A6"/>
<path d="M86.6788 18.0804C86.8139 18.1199 87.4853 18.3329 87.8133 18.5735C88.2224 18.8732 88.5041 19.2164 88.4578 19.808C88.4578 19.808 88.1298 19.3426 87.7632 19.1296C87.4776 18.96 86.9567 18.4906 86.6788 18.0804Z" fill="#0055A6"/>
<path d="M86.6904 13.7378C86.8139 13.7378 87.0571 13.797 87.0571 14.0021C87.0571 14.2072 86.7445 14.7002 86.6596 14.9211H86.6519C86.567 14.7002 86.2544 14.2072 86.2544 14.0021C86.2544 13.797 86.4975 13.7378 86.621 13.7378H86.6904Z" fill="#0055A6"/>
<path d="M86.4164 15.3313C86.3585 15.0434 86.2466 14.294 86.0729 14.1283C85.907 13.9706 85.6639 13.9548 85.5443 13.9627C85.4208 13.9706 85.2934 14.1007 85.3436 14.2664C85.3938 14.436 85.934 15.2643 86.0035 15.3668C86.1308 15.3471 86.1077 15.355 86.4164 15.3313Z" fill="#0055A6"/>
<path d="M86.8949 15.3313C86.9566 15.0434 87.0647 14.294 87.2384 14.1283C87.4043 13.9706 87.6474 13.9548 87.767 13.9627C87.8905 13.9706 88.0179 14.1007 87.9677 14.2664C87.9175 14.436 87.3773 15.2643 87.3078 15.3668C87.1805 15.3471 87.2075 15.355 86.8949 15.3313Z" fill="#0055A6"/>
<path d="M87.2423 12.732H86.8217V12.2548H86.4821V12.732H86.0576V13.0318H86.4821V13.5919H86.8217V13.0318H87.2423V12.732Z" fill="#0055A6"/>
<path d="M82.1369 15.8007C82.1369 15.71 82.1446 15.6193 82.1561 15.5286C82.187 15.2959 82.1909 15.0986 82.1677 14.933C81.8667 15.0513 81.6584 15.1263 81.2416 15.8165C81.2377 15.8165 81.9053 15.3984 82.1369 15.8007Z" fill="#0055A6"/>
<path d="M82.7196 16.8972C82.7273 16.7276 82.8392 16.1872 82.9743 15.8046C83.1441 15.3392 83.0476 14.6608 82.8431 14.2466C82.6463 13.8483 82.5344 13.4775 82.573 13.0634C82.573 13.0634 82.1794 13.1975 81.9517 13.3434C81.9131 13.8207 82.1871 14.2979 82.3183 14.5701C82.4726 14.8935 82.4418 15.3076 82.407 15.564C82.3453 15.9979 82.434 16.4594 82.7196 16.8972Z" fill="#0055A6"/>
<path d="M82.7621 13.2408C82.7467 13.1895 82.7467 13.0357 82.7775 12.9765C82.7775 12.9765 83.3988 12.3573 83.9198 12.2508C84.2478 12.1838 84.4523 12.3336 84.5488 12.4165C84.5488 12.4165 84.3635 12.3928 84.0857 12.6255C83.8079 12.8582 83.4606 13.1383 83.1982 13.2053C82.9435 13.2803 82.8894 13.2566 82.7621 13.2408Z" fill="#0055A6"/>
<path d="M84.6028 12.4678C84.8381 12.7084 85.035 12.9608 85.0311 13.1777C85.0272 13.4065 84.7687 13.9745 84.6336 14.1914C84.4986 14.4083 84.3018 14.6923 84.3249 15.0355C84.3365 15.209 84.4523 15.3865 84.5912 15.5325C84.5912 15.5325 83.831 15.3471 83.7384 14.8698C83.6573 14.4399 83.8348 14.1401 83.9583 13.9035C84.0702 13.6787 84.4214 13.158 84.5101 12.9411C84.5873 12.7399 84.6298 12.5743 84.6028 12.4678Z" fill="#0055A6"/>
<path d="M89.0443 17.8754C89.1948 18.4236 89.4534 18.9403 89.7081 19.3466C89.9357 19.7134 90.0824 20.3169 90.0592 20.522C90.0592 20.522 90.4027 19.7489 90.2251 19.2006C90.0939 18.7747 89.7235 18.1436 89.0443 17.8754Z" fill="#0055A6"/>
<path d="M89.901 18.0568C89.901 18.0568 90.422 18.0647 90.6651 18.2303C90.9776 18.4433 91.2786 18.9048 91.3905 19.457C91.3905 19.457 90.8619 19.3623 90.6033 19.098C90.3448 18.8298 90.0245 18.4315 89.901 18.0568Z" fill="#0055A6"/>
<path d="M87.1998 19.0192C87.0995 19.0271 86.8332 19.0902 86.702 19.1296C86.702 19.1296 87.1458 19.2637 87.3696 19.4491C87.5587 19.6069 87.7208 19.8553 87.798 20.2695C87.906 20.8493 88.2379 21.4725 88.3382 21.6618L88.3806 21.6539C88.3189 21.2556 88.562 20.4273 88.6238 20.3089C88.6238 20.3089 88.2726 20.0841 88.1105 19.8475C87.9909 19.6739 87.7825 19.386 87.1998 19.0192Z" fill="#0055A6"/>
<path d="M89.5113 20.2616C89.6425 20.5653 89.986 21.1057 89.8239 21.6697C89.6618 22.2337 89.303 22.4743 89.083 22.9516C89.083 22.9516 88.9055 22.0917 88.9441 21.4252C88.9827 20.7625 89.2219 20.5061 89.5113 20.2616Z" fill="#0055A6"/>
<path d="M90.5146 20.2853C90.5146 20.2853 91.0317 21.3108 91.1282 21.717C91.2208 22.1154 91.1359 22.3797 90.9584 22.6242C90.7809 22.8648 90.4837 23.1251 90.2098 23.634C90.2098 23.634 89.8895 23.204 89.8509 22.9753C89.8123 22.7504 89.874 22.2101 89.9435 21.9813C90.0091 21.7565 90.2831 21.0268 90.5146 20.2853Z" fill="#0055A6"/>
<path d="M90.7809 23.5669C90.6651 23.6931 90.0593 24.4346 89.9783 24.6555C89.8972 24.8724 89.7583 25.2826 89.9474 25.5666C90.1365 25.8506 90.5648 26.3082 90.943 26.5014C90.943 26.5014 90.5339 25.8467 90.5764 25.3103C90.6034 24.9671 90.8619 24.6634 90.9121 24.4544C90.9584 24.2453 90.9275 23.8943 90.7809 23.5669Z" fill="#0055A6"/>
<path d="M89.5923 23.1528C89.6849 23.2869 89.847 23.6064 89.8701 23.918C89.8933 24.2257 89.8431 24.4742 89.6772 24.9238C89.4688 25.4918 89.1485 26.1268 88.998 26.4108C88.998 26.4108 88.7125 25.9966 88.5581 25.6259C88.5581 25.6259 89.0057 25.0027 89.191 24.5609C89.4148 24.0442 89.5074 23.563 89.5923 23.1528Z" fill="#0055A6"/>
<path d="M89.3878 22.9161C89.3878 22.9161 89.1948 24.3795 88.3536 25.4641C87.7825 26.2017 87.3194 26.4541 87.0145 26.4541C86.5515 26.4541 86.0884 26.0597 85.9302 25.6101C85.772 25.1604 85.8221 24.4583 86.1231 24.2099C86.1231 24.2099 86.401 25.0894 86.9914 25.121C87.6628 25.1604 88.5234 24.3913 89.3878 22.9161Z" fill="#0055A6"/>
<path d="M88.6971 22.3008C88.7666 22.5611 88.7897 22.9634 88.6971 23.3421C88.6238 23.63 88.454 24.0047 88.126 24.2137C87.8404 24.3952 87.169 24.4386 86.9143 23.7917C86.9143 23.7957 88.1376 23.8903 88.6971 22.3008Z" fill="#0055A6"/>
<path d="M90.7037 28.2014C90.8696 28.6392 91.4716 29.1993 91.4677 29.5425C91.4561 30.4536 91.0664 31.0097 90.9738 31.3095C90.9738 31.3095 90.2599 30.7297 90.1326 30.0671C90.0708 29.7278 90.1441 28.7063 90.7037 28.2014Z" fill="#0055A6"/>
<path d="M89.9049 28.8444C89.9898 28.6077 90.2522 27.9648 90.5532 27.74C90.5532 27.74 90.943 26.5725 89.6927 25.8546C89.6927 25.8546 89.1795 26.5527 89.0444 27.2035C88.9055 27.8583 89.5885 28.2567 89.9049 28.8444Z" fill="#0055A6"/>
<path d="M88.342 25.8979C88.1413 26.1425 87.8596 26.4856 87.6397 26.5921C87.6397 26.5921 87.5664 27.1128 87.6088 27.4599C87.6705 27.9726 87.9947 28.5012 88.1336 28.8838C88.1336 28.8838 88.6777 28.1541 88.7433 27.7281C88.8051 27.2982 88.7935 26.9471 88.8166 26.742C88.8128 26.746 88.5118 26.2411 88.342 25.8979Z" fill="#0055A6"/>
<path d="M86.9065 28.3986C86.7522 28.158 86.2505 27.2745 86.2428 26.6316C86.2428 26.6316 86.8602 26.9669 87.3735 26.7223C87.3735 26.7223 87.4429 27.5585 87.3426 27.8385C87.2616 28.0673 87.1535 28.2054 86.9065 28.3986Z" fill="#0055A6"/>
<path d="M87.0454 28.5762C87.1457 28.4894 87.3927 28.2567 87.4892 28.1344C87.4892 28.1344 87.8982 28.8996 87.9677 29.1244C87.9677 29.1244 87.7632 29.1796 87.5394 29.01C87.3194 28.8444 87.2654 28.801 87.0454 28.5762Z" fill="#0055A6"/>
<path d="M88.9402 28.1304C88.89 28.3236 88.2301 29.2624 88.1144 29.3768C88.1144 29.3768 88.1645 29.716 88.4115 30.2051C88.6546 30.6941 88.9942 31.0333 89.1756 31.2069C89.1756 31.2069 89.5808 30.4812 89.7043 30.1617C89.8432 29.7948 89.8277 29.4359 89.766 29.3018C89.6271 28.9823 89.1486 28.5287 88.9402 28.1304Z" fill="#0055A6"/>
<path d="M89.932 30.5798C90.0786 30.8835 90.5185 31.3766 90.5841 31.7671C90.6381 32.0747 90.5918 32.3271 90.5108 32.5401C90.4298 32.7531 90.1635 33.1633 89.9899 33.4789C89.9899 33.4789 89.3879 32.8991 89.2567 32.4849C89.1563 32.1733 89.1949 31.7276 89.3377 31.4515C89.4766 31.1715 89.7931 30.8678 89.932 30.5798Z" fill="#0055A6"/>
<path d="M88.2224 30.4969C88.3807 30.844 88.7511 31.1911 88.836 31.4988C88.9364 31.8577 88.9672 32.0904 88.7974 32.5085C88.6469 32.8793 88.4617 33.0923 88.4 33.3171C88.4 33.3171 87.9099 32.6702 87.8288 32.3981C87.7478 32.1299 87.7208 31.6842 87.8211 31.4041C87.9253 31.1201 88.1028 30.7533 88.2224 30.4969Z" fill="#0055A6"/>
<path d="M90.6343 32.9622C90.6343 32.9622 89.793 34.0034 89.8123 34.5556C89.8355 35.2419 90.2831 35.6995 90.3449 36.1215C90.3449 36.1215 90.7848 35.6127 90.9546 35.2695C91.1437 34.883 91.2864 34.5556 91.2363 34.1218C91.1861 33.684 91.0742 33.4 90.6343 32.9622Z" fill="#0055A6"/>
<path d="M89.083 32.8596C89.2142 33.0568 89.5924 33.7392 89.4843 34.1454C89.3801 34.5517 88.9634 35.1197 88.8245 35.3642C88.8245 35.3642 88.4887 34.6621 88.4154 34.3427C88.3421 34.0232 88.4116 33.5025 89.083 32.8596Z" fill="#0055A6"/>
<path d="M97.5069 15.6902C97.5069 15.6035 97.1249 15.5325 96.6503 15.5325C96.1756 15.5325 95.7936 15.6035 95.7936 15.6902C95.7936 15.777 96.1795 15.848 96.6503 15.848C97.121 15.848 97.5069 15.777 97.5069 15.6902Z" fill="#0055A6"/>
<path d="M91.6569 12.9964C91.7109 12.6019 92.1585 11.7658 92.1585 11.3989C92.1585 11.111 91.9309 10.8783 91.6492 10.8783C91.3674 10.8783 91.1398 11.111 91.1398 11.3989C91.1398 11.7658 91.5874 12.6019 91.6414 12.9964H91.6569Z" fill="#0055A6"/>
<path d="M93.0808 13.8404C93.5246 12.7596 93.8217 11.9629 93.8101 11.6947C93.8024 11.533 93.6133 11.4146 93.4397 11.3555C93.2622 11.3003 93.104 11.2884 92.9882 11.3791C92.7567 11.5606 92.5406 13.02 92.4634 13.6234C92.6833 13.6708 92.8184 13.7023 93.0808 13.8404Z" fill="#0055A6"/>
<path d="M92.2704 13.6037C92.1585 13.5919 92.0428 13.584 91.927 13.5801C91.9965 13.0003 92.1933 12.0339 92.309 11.6553C92.4248 11.2766 92.5714 11.0005 92.8146 10.9335C92.8146 10.9335 92.6255 11.462 92.5213 12.0103C92.4171 12.5585 92.336 13.0831 92.2704 13.6037Z" fill="#0055A6"/>
<path d="M92.6833 14.8856C92.6833 14.8856 93.1811 15.4221 93.6711 15.5404C93.675 15.5404 93.4705 15.004 92.6833 14.8856ZM92.2781 14.6411C92.5521 14.6017 93.2467 14.6805 93.675 14.9921C94.1033 15.3037 94.2423 15.5601 94.3889 15.8362C94.3889 15.8362 93.6248 15.8993 92.9418 15.4931C92.6177 15.2958 92.3398 14.8501 92.2781 14.6411Z" fill="#0055A6"/>
<path d="M96.6271 17.2009C96.8046 17.0826 96.9088 16.8893 96.9474 16.6329C96.9474 16.6329 96.1563 16.6724 95.4848 16.5817V16.6369C95.4848 16.6369 96.5846 16.6448 96.6271 17.2009ZM96.3454 17.9306C96.3647 17.7807 96.3569 17.5204 96.3569 17.5204C95.9595 17.8991 95.1414 18.1673 95.1414 18.1673C95.153 17.9424 95.2263 17.7492 95.2263 17.7492C94.879 17.9622 94.6822 17.9346 94.6822 17.9346C94.7208 17.6703 94.8944 17.3587 94.8944 17.3587C94.6513 17.6703 94.3387 17.69 94.3387 17.69C94.2963 17.5322 94.3889 17.1457 94.3889 17.1457C94.2654 17.3035 94.0416 17.7058 93.3354 17.8636C92.6292 18.0213 92.309 17.6151 92.309 17.6151C92.9997 17.6663 93.6441 16.98 93.6441 16.98C93.2853 16.838 93.1618 16.5698 93.1618 16.5698C93.3702 16.3845 93.5824 16.3845 93.5824 16.3845C93.1811 16.1951 93.0962 15.8717 93.0962 15.8717C93.6017 16.1202 95.1645 16.1399 96.0135 16.1833C96.8625 16.2267 97.7114 15.9033 97.7114 15.9033C97.6149 17.7965 96.3454 17.9306 96.3454 17.9306Z" fill="#0055A6"/>
<path d="M97.9083 16.0334C97.8774 16.4436 97.7732 16.8498 97.6343 17.1378C97.6343 17.1378 98.1321 16.7512 98.2556 16.4278C98.3752 16.1004 98.4061 15.8796 97.9083 16.0334Z" fill="#0055A6"/>
<path d="M99.1162 17.3784C99.1162 17.2601 99.0236 17.1655 98.9078 17.1655C98.7959 17.1655 98.6994 17.2601 98.6994 17.3784C98.6994 17.4968 98.792 17.5914 98.9078 17.5914C99.0197 17.5914 99.1162 17.4968 99.1162 17.3784ZM98.7843 16.4437C99.066 16.3766 99.6564 16.3056 99.9188 16.7C100.181 17.0945 100.077 17.836 99.5561 18.1397C99.5561 18.1397 98.7534 17.4337 97.7848 18.1318C97.7848 18.1318 97.5572 17.9819 97.0516 17.8636C97.0516 17.8636 97.3488 17.4968 97.6884 17.339C97.9855 17.2049 98.6068 17.0195 98.7843 16.4437Z" fill="#0055A6"/>
<path d="M96.9436 17.9977C96.9436 17.9977 96.5886 18.4789 96.3339 18.6919C96.3339 18.6919 97.6382 18.68 97.97 19.8318C97.97 19.8318 98.4215 19.1257 98.0897 18.6643C97.7346 18.1673 97.4066 18.1042 96.9436 17.9977Z" fill="#0055A6"/>
<path d="M95.508 18.2855C95.508 18.2855 95.0874 18.4118 94.9484 18.4473C94.9484 18.4473 94.9407 18.1988 94.9523 18.0804C94.8249 18.112 94.6667 18.1554 94.5317 18.1672C94.5317 18.1672 94.1111 19.1257 93.783 19.5122C93.783 19.5122 93.7638 19.7252 93.949 20.0486C93.949 20.0486 94.1882 19.4807 94.6127 19.0271C94.8558 18.7667 95.0102 18.6405 95.508 18.2855Z" fill="#0055A6"/>
<path d="M96.6195 18.0804C96.4844 18.1199 95.8091 18.3329 95.4849 18.5735C95.0759 18.8732 94.7942 19.2164 94.8366 19.808C94.8366 19.808 95.1685 19.3426 95.5312 19.1296C95.8245 18.96 96.3455 18.4906 96.6195 18.0804Z" fill="#0055A6"/>
<path d="M96.6117 13.7378C96.4882 13.7378 96.2451 13.797 96.2451 14.0021C96.2451 14.2072 96.5577 14.7002 96.6426 14.9211H96.6503C96.7313 14.7002 97.0478 14.2072 97.0478 14.0021C97.0478 13.797 96.8047 13.7378 96.6812 13.7378H96.6117Z" fill="#0055A6"/>
<path d="M96.8818 15.3313C96.9397 15.0434 97.0516 14.294 97.2253 14.1283C97.3912 13.9706 97.6343 13.9548 97.7539 13.9627C97.8774 13.9706 98.0048 14.1007 97.9546 14.2664C97.9044 14.436 97.3603 15.2643 97.2909 15.3668C97.1674 15.3471 97.1944 15.355 96.8818 15.3313Z" fill="#0055A6"/>
<path d="M96.4034 15.3313C96.3455 15.0434 96.2336 14.294 96.0599 14.1283C95.894 13.9706 95.6509 13.9548 95.5312 13.9627C95.4116 13.9706 95.2804 14.1007 95.3306 14.2664C95.3807 14.436 95.921 15.2643 95.9943 15.3668C96.1178 15.3471 96.0946 15.355 96.4034 15.3313Z" fill="#0055A6"/>
<path d="M96.056 12.732H96.4767V12.2548H96.8162V12.732H97.2407V13.0318H96.8162V13.5919H96.4767V13.0318H96.056V12.732Z" fill="#0055A6"/>
<path d="M90.9969 9.91195H91.4176V9.43469H91.7572V9.91195H92.1817V10.2117H91.7572V10.7718H91.4176V10.2117H90.9969V9.91195Z" fill="#0055A6"/>
<path d="M101.165 15.8007C101.165 15.71 101.157 15.6193 101.146 15.5286C101.115 15.2959 101.111 15.0986 101.134 14.933C101.439 15.0513 101.644 15.1263 102.06 15.8165C102.06 15.8165 101.397 15.3984 101.165 15.8007Z" fill="#0055A6"/>
<path d="M100.583 16.8972C100.575 16.7276 100.463 16.1872 100.328 15.8046C100.158 15.3392 100.255 14.6608 100.459 14.2466C100.656 13.8483 100.768 13.4775 100.729 13.0634C100.729 13.0634 101.123 13.1975 101.35 13.3434C101.389 13.8207 101.115 14.2979 100.984 14.5701C100.83 14.8935 100.86 15.3076 100.895 15.564C100.957 15.9979 100.868 16.4594 100.583 16.8972Z" fill="#0055A6"/>
<path d="M100.54 13.2408C100.556 13.1895 100.556 13.0357 100.525 12.9765C100.525 12.9765 99.9034 12.3573 99.3824 12.2508C99.0544 12.1838 98.846 12.3336 98.7534 12.4165C98.7534 12.4165 98.9386 12.3928 99.2126 12.6255C99.4905 12.8582 99.8339 13.1383 100.1 13.2053C100.359 13.2803 100.413 13.2566 100.54 13.2408Z" fill="#0055A6"/>
<path d="M98.6993 12.4678C98.4639 12.7084 98.271 12.9608 98.2748 13.1777C98.2787 13.4065 98.5334 13.9745 98.6723 14.1914C98.8074 14.4083 99.0042 14.6923 98.981 15.0355C98.9694 15.209 98.8537 15.3865 98.7148 15.5325C98.7148 15.5325 99.475 15.3471 99.5676 14.8698C99.6486 14.4399 99.4711 14.1401 99.3476 13.9035C99.2319 13.6787 98.8845 13.158 98.7958 12.9411C98.7148 12.7399 98.6723 12.5743 98.6993 12.4678Z" fill="#0055A6"/>
<path d="M94.2577 17.8754C94.1034 18.4236 93.8448 18.9403 93.5901 19.3466C93.3586 19.7134 93.2158 20.3169 93.239 20.522C93.239 20.522 92.8955 19.7489 93.0692 19.2006C93.2081 18.7747 93.5747 18.1436 94.2577 17.8754Z" fill="#0055A6"/>
<path d="M93.401 18.0568C93.401 18.0568 92.8801 18.0647 92.637 18.2303C92.3244 18.4433 92.0234 18.9048 91.9115 19.457C91.9115 19.457 92.4402 19.3623 92.6987 19.098C92.9534 18.8298 93.2775 18.4315 93.401 18.0568Z" fill="#0055A6"/>
<path d="M96.1023 19.0192C96.2027 19.0271 96.4689 19.0902 96.6001 19.1296C96.6001 19.1296 96.1564 19.2637 95.9364 19.4491C95.7473 19.6069 95.5852 19.8553 95.5081 20.2695C95.4 20.8493 95.0643 21.4725 94.9639 21.6618L94.9254 21.6539C94.9871 21.2556 94.7401 20.4273 94.6823 20.3089C94.6823 20.3089 95.0334 20.0841 95.1955 19.8475C95.3074 19.6739 95.5196 19.386 96.1023 19.0192Z" fill="#0055A6"/>
<path d="M93.7908 20.2616C93.6596 20.5653 93.3162 21.1057 93.4783 21.6697C93.6403 22.2337 93.9992 22.4743 94.223 22.9516C94.223 22.9516 94.4005 22.0917 94.3619 21.4252C94.3156 20.7625 94.0803 20.5061 93.7908 20.2616Z" fill="#0055A6"/>
<path d="M91.6568 21.8393C91.68 21.5119 92.4247 20.7152 92.39 20.2853C92.3514 19.8553 91.7919 19.5516 91.6529 19.4885H91.6452C91.5063 19.5516 90.9468 19.8553 90.9082 20.2853C90.8696 20.7152 91.6182 21.5119 91.6414 21.8393H91.6568Z" fill="#0055A6"/>
<path d="M92.7875 20.2853C92.7875 20.2853 92.2704 21.3108 92.1739 21.717C92.0852 22.1154 92.1662 22.3797 92.3437 22.6242C92.5174 22.8648 92.8184 23.1251 93.0924 23.634C93.0924 23.634 93.4126 23.204 93.4512 22.9753C93.4898 22.7504 93.4281 22.2101 93.3586 21.9813C93.293 21.7565 93.0152 21.0268 92.7875 20.2853Z" fill="#0055A6"/>
<path d="M91.6568 24.2611C91.8961 24.0521 92.1045 23.7405 92.1701 23.5591C92.2357 23.3737 92.255 23.1055 92.0967 22.9004C91.9077 22.6519 91.6723 22.3797 91.6568 22.1549H91.6453C91.6298 22.3797 91.3944 22.6519 91.2053 22.9004C91.0471 23.1055 91.0664 23.3737 91.132 23.5591C91.1976 23.7444 91.4099 24.0521 91.6453 24.2611H91.6568Z" fill="#0055A6"/>
<path d="M92.5212 23.5669C92.6331 23.6931 93.239 24.4346 93.3239 24.6555C93.4049 24.8724 93.5438 25.2826 93.3547 25.5666C93.1657 25.8506 92.7373 26.3082 92.3591 26.5014C92.3591 26.5014 92.7682 25.8467 92.7257 25.3103C92.6987 24.9671 92.4402 24.6634 92.39 24.4544C92.3398 24.2453 92.3746 23.8943 92.5212 23.5669Z" fill="#0055A6"/>
<path d="M93.7059 23.1528C93.6133 23.2869 93.4512 23.6064 93.4281 23.918C93.4049 24.2257 93.4551 24.4742 93.621 24.9238C93.8255 25.4918 94.1458 26.1268 94.2963 26.4108C94.2963 26.4108 94.5819 25.9966 94.7362 25.6259C94.7362 25.6259 94.2886 25.0027 94.1034 24.5609C93.8873 24.0442 93.7947 23.563 93.7059 23.1528Z" fill="#0055A6"/>
<path d="M93.9143 22.9161C93.9143 22.9161 94.1073 24.3795 94.9485 25.4641C95.5196 26.2017 95.9827 26.4541 96.2875 26.4541C96.7506 26.4541 97.2137 26.0597 97.3719 25.6101C97.5301 25.1604 97.4799 24.4583 97.1789 24.2099C97.1789 24.2099 96.9011 25.0894 96.3107 25.121C95.6392 25.1604 94.7748 24.3913 93.9143 22.9161Z" fill="#0055A6"/>
<path d="M94.605 22.3008C94.5317 22.5611 94.5124 22.9634 94.605 23.3421C94.6745 23.63 94.8481 24.0047 95.1761 24.2137C95.4617 24.3952 96.1332 24.4386 96.3878 23.7917C96.3878 23.7957 95.1607 23.8903 94.605 22.3008Z" fill="#0055A6"/>
<path d="M91.6492 26.6473C91.8228 26.5645 91.9694 26.4975 92.1701 26.1898C92.3245 25.9453 92.475 25.4956 92.3901 25.1722C92.2859 24.7738 92.0736 24.616 91.9501 24.3676C91.846 24.4662 91.7842 24.5411 91.6569 24.616H91.6492C91.5218 24.5411 91.4562 24.4622 91.352 24.3676C91.2247 24.616 91.0163 24.7738 90.9121 25.1722C90.8311 25.4917 90.9777 25.9453 91.1321 26.1898C91.3289 26.4975 91.4755 26.5606 91.6492 26.6473Z" fill="#0055A6"/>
<path d="M91.6491 29.1126C91.734 28.726 92.5251 27.9766 92.4518 27.5704C92.3437 26.959 91.9578 27.0892 91.653 26.8289H91.6452C91.3404 27.0852 90.9506 26.959 90.8426 27.5704C90.7693 27.9766 91.5565 28.726 91.6414 29.1126H91.6491Z" fill="#0055A6"/>
<path d="M92.6023 28.2014C92.4325 28.6392 91.8305 29.1993 91.8382 29.5425C91.8459 30.4536 92.2357 31.0097 92.3283 31.3095C92.3283 31.3095 93.0422 30.7297 93.1657 30.0671C93.2313 29.7278 93.1541 28.7063 92.6023 28.2014Z" fill="#0055A6"/>
<path d="M93.3972 28.8444C93.3123 28.6077 93.0499 27.9648 92.7489 27.74C92.7489 27.74 92.3591 26.5725 93.6094 25.8546C93.6094 25.8546 94.1227 26.5527 94.2616 27.2035C94.3928 27.8583 93.7136 28.2567 93.3972 28.8444Z" fill="#0055A6"/>
<path d="M94.9601 25.8979C95.1608 26.1425 95.4425 26.4856 95.6624 26.5921C95.6624 26.5921 95.7358 27.1128 95.6933 27.4599C95.6316 27.9726 95.3074 28.5012 95.1685 28.8838C95.1685 28.8838 94.6244 28.1541 94.5588 27.7281C94.497 27.2982 94.5086 26.9471 94.4855 26.742C94.4855 26.746 94.7903 26.2411 94.9601 25.8979Z" fill="#0055A6"/>
<path d="M96.3956 28.3986C96.5499 28.158 97.0516 27.2745 97.0555 26.6316C97.0555 26.6316 96.438 26.9669 95.9248 26.7223C95.9248 26.7223 95.8553 27.5585 95.9557 27.8385C96.0406 28.0673 96.1447 28.2054 96.3956 28.3986Z" fill="#0055A6"/>
<path d="M96.2528 28.5762C96.1525 28.4894 95.9055 28.2567 95.8052 28.1344C95.8052 28.1344 95.3961 28.8996 95.3267 29.1244C95.3267 29.1244 95.5312 29.1796 95.755 29.01C95.9827 28.8444 96.0328 28.801 96.2528 28.5762Z" fill="#0055A6"/>
<path d="M94.362 28.1304C94.4122 28.3236 95.072 29.2624 95.1839 29.3768C95.1839 29.3768 95.1338 29.716 94.8907 30.2051C94.6476 30.6941 94.308 31.0333 94.1227 31.2069C94.1227 31.2069 93.7176 30.4812 93.5941 30.1617C93.4552 29.7948 93.4745 29.4359 93.5323 29.3018C93.6713 28.9823 94.1498 28.5287 94.362 28.1304Z" fill="#0055A6"/>
<path d="M91.6569 33.676C91.7186 33.4196 92.1007 33.1159 92.2589 32.6702C92.3515 32.406 92.3476 32.0983 92.2473 31.8853C92.1277 31.6408 91.6993 31.0373 91.653 30.8638H91.6492C91.599 31.0373 91.1745 31.6408 91.0549 31.8853C90.9507 32.0983 90.9469 32.406 91.0433 32.6702C91.2015 33.1159 91.5836 33.4196 91.6453 33.676H91.6569Z" fill="#0055A6"/>
<path d="M93.3702 30.5798C93.2236 30.8835 92.7836 31.3766 92.718 31.7671C92.664 32.0747 92.7142 32.3271 92.7914 32.5401C92.8724 32.7531 93.1387 33.1633 93.3123 33.4789C93.3123 33.4789 93.9143 32.8991 94.0455 32.4849C94.1458 32.1733 94.1111 31.7276 93.9645 31.4515C93.8217 31.1715 93.5091 30.8678 93.3702 30.5798Z" fill="#0055A6"/>
<path d="M95.0797 30.4969C94.9215 30.844 94.5472 31.1911 94.4623 31.4988C94.3619 31.8577 94.3311 32.0904 94.5009 32.5085C94.6514 32.8793 94.8327 33.0923 94.8983 33.3171C94.8983 33.3171 95.3884 32.6702 95.4694 32.3981C95.5543 32.1299 95.5775 31.6842 95.4772 31.4041C95.373 31.1201 95.1993 30.7533 95.0797 30.4969Z" fill="#0055A6"/>
<path d="M91.6491 38.6458C91.68 38.3303 92.3206 37.3481 92.3514 36.3069C92.3669 35.7862 91.9115 34.9698 91.653 34.6621H91.6414C91.3829 34.9698 90.9314 35.7862 90.9468 36.3069C90.9777 37.3481 91.6182 38.3303 91.6491 38.6458Z" fill="#0055A6"/>
<path d="M92.6679 32.9622C92.6679 32.9622 93.5091 34.0034 93.4898 34.5556C93.4666 35.2419 93.019 35.6995 92.9534 36.1215C92.9534 36.1215 92.5135 35.6127 92.3437 35.2695C92.1546 34.883 92.0118 34.5556 92.062 34.1218C92.116 33.684 92.2279 33.4 92.6679 32.9622Z" fill="#0055A6"/>
<path d="M94.2192 32.8596C94.088 33.0568 93.7098 33.7392 93.8179 34.1454C93.9259 34.5517 94.3388 35.1197 94.4777 35.3642C94.4777 35.3642 94.8096 34.6621 94.8868 34.3427C94.9601 34.0232 94.8906 33.5025 94.2192 32.8596Z" fill="#0055A6"/>
<path d="M92.228 40.3142C92.2782 39.5056 92.7258 39.0205 92.8069 38.6024C92.8956 38.1409 92.8647 37.6991 92.5136 37.1627C92.2319 38.1567 91.9154 38.8824 91.6723 39.3833C91.6685 39.3952 91.6608 39.4109 91.653 39.4228C91.6453 39.407 91.6415 39.3952 91.6337 39.3833C91.3868 38.8824 91.0742 38.1567 90.7925 37.1627C90.4413 37.6952 90.4105 38.137 90.4992 38.6024C90.5803 39.0244 91.0279 39.5056 91.0781 40.3142C91.1282 41.1227 90.2368 41.4343 90.2368 41.4343C90.5378 41.5448 90.8813 41.5921 91.4254 41.0675C91.5257 40.9689 91.599 40.8664 91.6569 40.7559C91.7148 40.8664 91.7881 40.9729 91.8884 41.0675C92.4325 41.5921 92.7721 41.5448 93.0731 41.4343C93.0693 41.4343 92.1779 41.1227 92.228 40.3142Z" fill="#0055A6"/>
<path d="M89.4225 34.9382C89.5151 35.2419 89.793 35.7981 89.8277 35.9716C89.8933 36.2911 89.8045 36.6816 89.2334 37.0918C89.2334 37.0918 88.863 36.8275 88.7163 36.4804C88.5813 36.1531 88.6584 35.9243 88.8012 35.7547C88.944 35.5811 89.2797 35.1907 89.4225 34.9382Z" fill="#0055A6"/>
<path d="M90.6227 36.1333C90.6227 36.295 90.5031 37.2101 90.2484 37.6637C89.8934 38.3026 89.3647 38.776 88.9055 38.776C88.4771 38.776 88.3884 38.5156 88.1761 38.4091C88.1761 38.4091 88.2842 37.8569 88.7627 37.7071C89.357 37.5335 90.26 36.8117 90.6227 36.1333Z" fill="#0055A6"/>
<path d="M89.0907 37.3008C88.9904 37.222 88.9055 37.1707 88.7859 37.0287C88.7859 37.0287 88.3305 37.2022 87.9601 37.4586C87.5857 37.715 87.2191 38.1528 87.0223 38.3816C87.0223 38.3816 87.5819 38.5314 87.9369 38.3658C87.9369 38.3658 88.0681 37.8175 88.4656 37.5769C88.5505 37.5178 88.8322 37.4349 89.0907 37.3008Z" fill="#0055A6"/>
<path d="M88.6237 36.8315C88.5389 36.6934 88.3613 36.441 88.3999 36.0426C88.3999 36.0426 87.6127 36.5514 87.3773 36.7447C87.1419 36.9419 86.6518 37.4586 86.5399 37.6282C86.5399 37.6282 87.1342 37.498 87.5895 37.3403C88.0912 37.1707 88.4385 36.9419 88.6237 36.8315Z" fill="#0055A6"/>
<path d="M87.2924 37.7031C86.8679 37.857 85.9147 38.0147 85.5173 38.137C85.116 38.2593 84.8304 38.4683 84.4484 38.8943C84.4484 38.8943 85.0349 39.06 85.3475 39.1625C85.3475 39.1625 85.8453 38.8154 86.3894 38.6024C86.7405 38.4604 86.9142 38.0778 87.2924 37.7031Z" fill="#0055A6"/>
<path d="M86.4087 40.5746C86.4974 40.472 86.6132 40.3537 86.5244 40.1131C86.4627 39.9356 86.1193 39.7423 85.9109 39.6398C85.5713 39.4741 84.6297 39.2138 84.321 39.1191C84.321 39.1191 84.1667 39.3045 84.0856 39.4978C84.047 39.5727 84.0972 39.6516 84.2323 39.6753C84.4947 39.7226 85.1275 39.6003 85.2819 39.7029C85.4478 39.8133 85.3899 39.9632 85.3899 40.1131C85.3899 40.1131 85.6793 39.9356 85.8607 39.975C86.1077 40.0263 86.262 40.1486 86.4087 40.5746Z" fill="#0055A6"/>
<path d="M85.5636 39.2256C85.6331 39.2493 85.9997 39.3637 86.3624 39.5964C86.3624 39.5964 86.5206 39.5333 86.6016 39.3834C86.6788 39.2414 87.003 38.7484 87.3001 38.6853C87.3001 38.6853 87.0454 38.6616 86.9026 38.6143C86.9026 38.6143 86.5939 38.6971 86.374 38.7839C86.154 38.8785 85.88 39.0166 85.5636 39.2256Z" fill="#0055A6"/>
<path d="M88.0063 38.6104C87.9484 38.638 87.8519 38.6853 87.632 38.6932C87.632 38.6932 86.7946 39.2848 86.6981 39.8725C86.6132 40.3774 86.8756 40.618 86.9991 40.6811C87.1264 40.7442 87.7091 40.9887 88.0873 40.192C88.0873 40.192 87.4429 40.4089 87.2654 40.0894C87.0879 39.7739 87.3734 39.3124 87.5509 39.1783C87.7825 39.0008 88.1954 38.8825 88.4462 38.9298C88.4462 38.9338 88.2455 38.7326 88.0063 38.6104Z" fill="#0055A6"/>
<path d="M82.546 45.3707C82.6463 44.9368 82.7582 44.4833 82.955 44.0612C83.3332 43.2487 84.2555 41.0754 86.1811 40.6928C86.3625 40.6573 85.9727 40.1998 85.8029 40.2235C85.6293 40.2432 85.2858 40.472 85.1353 40.5745C85.1353 40.5745 85.1353 40.113 85.1315 40.0302C85.1276 39.9474 85.0543 39.9158 84.981 39.9198C84.9076 39.9198 84.4407 39.9158 84.2941 40.0894C83.8542 40.61 83.1133 42.0063 82.6965 43.0475C82.2759 44.0888 81.9903 44.4044 81.5465 44.2466C81.1028 44.0888 80.8404 43.5682 80.0647 43.726C79.7984 43.7812 79.5013 43.9626 79.2698 44.2348C79.3354 44.361 79.4164 44.5148 79.7792 44.5148C80.138 44.5148 80.8288 44.6686 81.2108 44.9447C81.589 45.2169 81.9903 45.3115 82.546 45.3707Z" fill="#0055A6"/>
<path d="M90.2367 38.6418C90.2792 38.9771 90.4374 39.2926 90.6149 39.62C90.6149 39.62 90.0283 42.3849 87.906 42.6019C87.906 42.6019 87.9484 42.03 88.5774 41.5922C89.2064 41.1543 90.1441 40.4799 90.0785 39.4504C90.0785 39.4504 89.9126 39.4859 89.6116 39.8725C89.3106 40.259 88.6469 41.3713 87.6243 41.3792C87.6243 41.3792 87.7748 40.8585 88.2263 40.5548C88.6816 40.255 89.2566 39.8725 89.519 39.407C89.7775 38.9416 90.0554 38.7286 90.2367 38.6418Z" fill="#0055A6"/>
<path d="M89.2373 48.7154L90.5262 50.5613L91.5025 48.7825L91.1552 48.1475C90.9005 48.6168 90.6265 49.1217 90.4722 49.3938C90.3525 49.2242 90.0284 48.7549 89.6 48.1475L89.2373 48.7154Z" fill="#0055A6"/>
<path d="M88.9054 47.1536C87.6474 45.355 86.0961 43.1265 85.9379 42.9017L86.428 42.5428L84.8883 41.9432L84.9192 43.655L85.4401 43.2725L88.5466 47.7255L88.9054 47.1536Z" fill="#0055A6"/>
<path d="M78.2934 37.0445C78.6755 36.6224 79.316 36.9853 79.9682 37.5966C80.6203 38.208 81.0294 38.8351 80.6474 39.2572C80.2962 39.6477 79.6248 39.3163 78.9726 38.705C78.3243 38.0936 77.9153 37.4665 78.2934 37.0445Z" fill="#0055A6"/>
<path d="M79.343 44.5621C79.3237 44.5464 79.3006 44.5266 79.2813 44.5109C78.934 44.1993 78.7372 43.726 78.7372 43.2053C78.7372 42.2035 79.5321 41.391 80.5123 41.391C81.4886 41.391 82.2835 42.2035 82.2835 43.2053C82.2835 43.3394 82.2565 43.5603 82.2565 43.5603C82.3375 43.4065 82.627 42.7162 82.6887 42.59C82.4263 41.6118 81.5465 40.894 80.5084 40.894C79.617 40.894 78.8414 41.4265 78.4748 42.1956C78.6137 41.2805 79.0575 40.4601 79.3739 40.1525C79.7521 39.7896 80.3926 39.6713 80.3926 39.6713C79.972 39.7423 79.4163 39.474 78.7951 38.8942C78.2046 38.342 77.8998 37.8569 77.8844 37.4546C77.9229 38.0265 77.9037 38.346 77.7493 38.8075C77.5332 39.4425 76.9466 40.606 77.155 41.9195C77.2708 42.6413 77.784 43.7181 78.6407 44.5976C78.8221 44.7948 78.8915 45.0867 78.9147 45.2405C78.9147 45.2405 80.1804 45.2405 80.4775 45.2682C80.4775 45.2682 80.7785 45.2405 80.7747 45.0512C80.7708 44.8619 80.601 44.8106 80.4505 44.8106C80.3078 44.8027 79.6826 44.8185 79.343 44.5621Z" fill="#0055A6"/>
<path d="M86.3316 45C85.5173 45.2998 84.707 45.4575 83.939 45.5798C83.4374 45.6587 82.9473 45.6863 82.4804 45.6626C82.4881 45.7415 82.4881 45.848 82.4418 45.9269C82.4418 45.9269 82.5344 46.0373 82.5344 46.1636C83.0129 46.1833 83.5068 46.1557 84.0124 46.0728C84.8536 45.9427 85.7373 45.7652 86.6248 45.422L86.3316 45Z" fill="#0055A6"/>
<path d="M87.6667 44.9369C88.7434 44.3334 89.7969 43.4065 90.7462 41.9235L90.9159 41.6316C90.6574 41.7499 90.3217 41.6671 90.3217 41.6671C90.3062 41.6908 90.2638 41.7578 90.2445 41.7933C89.3569 43.1304 88.3806 43.9705 87.3773 44.5227L87.6667 44.9369Z" fill="#0055A6"/>
<path d="M80.5547 45.4102C80.4042 45.3865 79.9334 45.3983 79.6479 45.4417C79.3392 45.493 78.9841 45.5561 78.9456 45.7336C78.9108 45.8993 79.0227 46.0768 79.1809 46.3292C79.2774 46.483 79.509 46.3962 79.6363 46.345C79.7636 46.2976 80.493 45.8953 80.6126 45.7652C80.7322 45.635 80.7824 45.4496 80.5547 45.4102Z" fill="#0055A6"/>
<path d="M81.2995 45.9033C81.2223 45.852 81.0294 45.777 80.8326 45.852C80.6358 45.9269 79.918 46.3608 79.8678 46.5659C79.8215 46.7671 79.918 46.8736 80.0299 46.9169C80.1418 46.9603 80.2769 47.0037 80.3772 47.0155C80.5547 47.0313 80.7322 46.9248 80.8248 46.8104C80.9175 46.6961 81.2532 46.278 81.3033 46.1833C81.3458 46.0886 81.3767 45.9506 81.2995 45.9033Z" fill="#0055A6"/>
<path d="M81.3882 46.3568C81.284 46.4752 80.9946 46.838 80.9599 46.8972C80.9252 46.9564 80.9753 47.0471 81.068 47.0392C81.1567 47.0313 81.6506 46.9761 81.9362 46.7789C82.2179 46.5817 82.4108 46.1991 82.214 46.061C82.0172 45.919 81.7162 45.9821 81.3882 46.3568Z" fill="#0055A6"/>
<path d="M81.5465 45.2564C81.4539 45.2327 81.0796 45.1341 80.9986 45.2603C80.8982 45.4181 80.9715 45.5877 81.261 45.7297C81.5504 45.8717 82.0983 45.9861 82.2064 45.8323C82.3106 45.6784 82.1601 45.4181 81.5465 45.2564Z" fill="#0055A6"/>
<path d="M93.8757 34.9382C93.7831 35.2419 93.5052 35.7981 93.4666 35.9716C93.401 36.2911 93.4898 36.6816 94.0609 37.0918C94.0609 37.0918 94.4313 36.8275 94.578 36.4804C94.713 36.1531 94.632 35.9243 94.4931 35.7547C94.3542 35.5811 94.0184 35.1907 93.8757 34.9382Z" fill="#0055A6"/>
<path d="M92.6755 36.1333C92.6755 36.295 92.7952 37.2101 93.0499 37.6637C93.4049 38.3026 93.9297 38.776 94.3928 38.776C94.8211 38.776 94.9099 38.5156 95.1182 38.4091C95.1182 38.4091 95.0102 37.8569 94.5317 37.7071C93.9413 37.5335 93.0421 36.8117 92.6755 36.1333Z" fill="#0055A6"/>
<path d="M94.2114 37.3008C94.3118 37.222 94.3967 37.1707 94.5163 37.0287C94.5163 37.0287 94.9716 37.2022 95.3421 37.4586C95.7164 37.715 96.083 38.1528 96.2798 38.3816C96.2798 38.3816 95.7203 38.5314 95.3652 38.3658C95.3652 38.3658 95.234 37.8175 94.8366 37.5769C94.7478 37.5178 94.4661 37.4349 94.2114 37.3008Z" fill="#0055A6"/>
<path d="M94.6783 36.8315C94.7632 36.6934 94.9407 36.441 94.9022 36.0426C94.9022 36.0426 95.6894 36.5514 95.9248 36.7447C96.1602 36.9419 96.6502 37.4586 96.7622 37.6282C96.7622 37.6282 96.1679 37.498 95.7087 37.3403C95.207 37.1707 94.8597 36.9419 94.6783 36.8315Z" fill="#0055A6"/>
<path d="M96.0098 37.7031C96.4342 37.857 97.3835 38.0147 97.7849 38.137C98.1862 38.2593 98.4717 38.4683 98.8538 38.8943C98.8538 38.8943 98.2672 39.06 97.9546 39.1625C97.9546 39.1625 97.4568 38.8154 96.9127 38.6024C96.5577 38.4604 96.3841 38.0778 96.0098 37.7031Z" fill="#0055A6"/>
<path d="M96.8933 40.5746C96.8046 40.472 96.6888 40.3537 96.7776 40.1131C96.8393 39.9356 97.1866 39.7423 97.395 39.6398C97.7384 39.4741 98.6839 39.2138 98.9926 39.1191C98.9926 39.1191 99.1469 39.3045 99.228 39.4978C99.2666 39.5727 99.2164 39.6516 99.0813 39.6753C98.8189 39.7226 98.1822 39.6003 98.0279 39.7029C97.8619 39.8133 97.9198 39.9632 97.9198 40.1131C97.9198 40.1131 97.6304 39.9356 97.449 39.975C97.1943 40.0263 97.0361 40.1486 96.8933 40.5746Z" fill="#0055A6"/>
<path d="M97.7385 39.2256C97.669 39.2493 97.2986 39.3637 96.9397 39.5964C96.9397 39.5964 96.7815 39.5333 96.7043 39.3834C96.6271 39.2414 96.303 38.7484 96.0059 38.6853C96.0059 38.6853 96.2567 38.6616 96.4033 38.6143C96.4033 38.6143 96.712 38.6971 96.932 38.7839C97.1481 38.8785 97.4182 39.0166 97.7385 39.2256Z" fill="#0055A6"/>
<path d="M95.2919 38.6104C95.3498 38.638 95.4424 38.6853 95.6662 38.6932C95.6662 38.6932 96.4998 39.2848 96.6001 39.8725C96.685 40.3774 96.4264 40.618 96.2991 40.6811C96.1717 40.7442 95.5891 40.9887 95.2109 40.192C95.2109 40.192 95.8553 40.4089 96.0328 40.0894C96.2103 39.7739 95.9248 39.3124 95.7473 39.1783C95.5157 39.0008 95.1028 38.8825 94.8481 38.9298C94.8481 38.9338 95.0527 38.7326 95.2919 38.6104Z" fill="#0055A6"/>
<path d="M100.752 45.3707C100.652 44.9368 100.536 44.4833 100.343 44.0612C99.969 43.2487 99.0428 41.0754 97.1172 40.6928C96.9359 40.6573 97.3256 40.1998 97.4954 40.2235C97.6691 40.2432 98.0125 40.472 98.163 40.5745C98.163 40.5745 98.163 40.113 98.1669 40.0302C98.1707 39.9474 98.244 39.9158 98.3174 39.9198C98.3907 39.9198 98.8576 39.9158 99.0042 40.0894C99.4442 40.61 100.185 42.0063 100.602 43.0475C101.022 44.0888 101.312 44.4044 101.752 44.2466C102.196 44.0888 102.462 43.5682 103.234 43.726C103.5 43.7812 103.797 43.9626 104.029 44.2348C103.963 44.361 103.882 44.5148 103.519 44.5148C103.156 44.5148 102.47 44.6686 102.084 44.9447C101.709 45.2169 101.308 45.3115 100.752 45.3707Z" fill="#0055A6"/>
<path d="M93.0615 38.6418C93.0191 38.9771 92.8609 39.2926 92.6833 39.62C92.6833 39.62 93.2699 42.3849 95.3884 42.6019C95.3884 42.6019 95.346 42.03 94.717 41.5922C94.088 41.1543 93.1503 40.4799 93.2159 39.4504C93.2159 39.4504 93.3818 39.4859 93.6867 39.8725C93.9877 40.259 94.6514 41.3713 95.674 41.3792C95.674 41.3792 95.5235 40.8585 95.072 40.5548C94.6205 40.255 94.0417 39.8725 93.7793 39.407C93.5207 38.9416 93.2468 38.7286 93.0615 38.6418Z" fill="#0055A6"/>
<path d="M91.653 41.324C91.7765 41.6947 92.5792 42.8504 92.9303 43.1817C93.2815 43.513 94.1382 44.3847 94.5935 44.8225C94.5935 44.8225 93.2931 44.4912 92.5599 43.8128C92.5599 43.8128 92.0389 44.1244 91.6569 44.1244H91.6376C91.2594 44.1244 90.7385 43.8128 90.7385 43.8128C90.0053 44.4912 88.7048 44.8225 88.7048 44.8225C89.1602 44.3847 90.0169 43.5091 90.368 43.1817C90.7192 42.8504 91.5218 41.6947 91.6453 41.324H91.653Z" fill="#0055A6"/>
<path d="M91.6568 44.3925C91.9424 44.3925 92.2202 44.2742 92.3707 44.2072C92.2202 44.5385 91.9269 45.0512 91.653 45.2642H91.6452C91.3674 45.0512 91.078 44.5345 90.9275 44.2072C91.0818 44.2742 91.352 44.3925 91.6375 44.3925H91.6568Z" fill="#0055A6"/>
<path d="M92.7721 50.5654L97.8659 43.2725L98.3868 43.655L98.4177 41.9432L96.878 42.5428L97.3642 42.9017C97.1134 43.2606 93.3085 48.7155 92.8261 49.4018L90.5185 45.1302L90.2329 45.572L88.18 48.7431L87.6668 48.3921L87.6591 50.0802L89.2142 49.4492L88.6932 49.0942C88.9749 48.6564 90.0902 46.9406 90.4606 46.3648L92.7721 50.5654Z" fill="#0055A6"/>
<path d="M93.702 47.6979C93.3586 47.1693 93.0113 46.6369 92.8376 46.3608C92.7103 46.6053 92.4479 47.0865 92.1546 47.615L91.7919 46.9485L92.7836 45.1262L93.0692 45.568L94.0918 47.1457L93.702 47.6979Z" fill="#0055A6"/>
<path d="M94.7516 48.1711L95.1182 48.7391L95.6315 48.3881L95.6392 50.0762L94.0802 49.4451L94.6011 49.0902C94.5471 49.0073 94.4661 48.8772 94.3658 48.7233L94.7516 48.1711Z" fill="#0055A6"/>
<path d="M105.005 37.0445C104.623 36.6224 103.978 36.9853 103.33 37.5966C102.678 38.208 102.269 38.8351 102.651 39.2572C103.002 39.6477 103.677 39.3163 104.326 38.705C104.974 38.0936 105.383 37.4665 105.005 37.0445Z" fill="#0055A6"/>
<path d="M103.955 44.5621C103.978 44.5464 103.994 44.5266 104.013 44.5109C104.36 44.1993 104.557 43.726 104.557 43.2053C104.557 42.2035 103.762 41.391 102.782 41.391C101.806 41.391 101.011 42.2035 101.011 43.2053C101.011 43.3394 101.038 43.5603 101.038 43.5603C100.957 43.4065 100.667 42.7162 100.606 42.59C100.868 41.6118 101.744 40.894 102.782 40.894C103.677 40.894 104.449 41.4265 104.816 42.1956C104.677 41.2805 104.229 40.4601 103.917 40.1525C103.538 39.7896 102.898 39.6713 102.898 39.6713C103.319 39.7423 103.874 39.474 104.495 38.8942C105.086 38.342 105.391 37.8569 105.406 37.4546C105.368 38.0265 105.387 38.346 105.545 38.8075C105.761 39.4425 106.344 40.606 106.136 41.9195C106.02 42.6413 105.507 43.7181 104.654 44.5976C104.468 44.7948 104.403 45.0867 104.38 45.2405C104.38 45.2405 103.114 45.2405 102.817 45.2682C102.817 45.2682 102.516 45.2405 102.52 45.0512C102.527 44.8619 102.693 44.8106 102.84 44.8106C102.991 44.8027 103.62 44.8185 103.955 44.5621Z" fill="#0055A6"/>
<path d="M95.6316 44.933C94.5549 44.3295 93.5053 43.4026 92.556 41.9196L92.3862 41.6277C92.6448 41.746 92.9805 41.6632 92.9805 41.6632C92.9959 41.6868 93.0384 41.7539 93.0577 41.7894C93.9414 43.1265 94.9215 43.9666 95.9249 44.5188L95.6316 44.933Z" fill="#0055A6"/>
<path d="M96.9629 45C97.7771 45.3037 98.5875 45.4615 99.3593 45.5838C99.8609 45.6626 100.351 45.6902 100.818 45.6666C100.81 45.7455 100.814 45.852 100.857 45.9308C100.857 45.9308 100.764 46.0413 100.764 46.1675C100.285 46.1872 99.7915 46.1596 99.286 46.0768C98.4486 45.9466 97.561 45.7691 96.6735 45.426L96.9629 45Z" fill="#0055A6"/>
<path d="M102.743 45.4102C102.894 45.3865 103.365 45.3983 103.65 45.4417C103.959 45.493 104.314 45.5561 104.353 45.7336C104.391 45.8993 104.275 46.0768 104.117 46.3292C104.021 46.483 103.789 46.3962 103.662 46.345C103.535 46.2976 102.805 45.8953 102.686 45.7652C102.566 45.635 102.52 45.4496 102.743 45.4102Z" fill="#0055A6"/>
<path d="M101.999 45.9033C102.076 45.852 102.269 45.777 102.466 45.852C102.663 45.9269 103.38 46.3608 103.427 46.5659C103.473 46.7671 103.376 46.8736 103.265 46.9169C103.153 46.9603 103.018 47.0037 102.917 47.0155C102.74 47.0313 102.562 46.9248 102.47 46.8104C102.377 46.6961 102.041 46.278 101.991 46.1833C101.952 46.0886 101.925 45.9506 101.999 45.9033Z" fill="#0055A6"/>
<path d="M101.914 46.3568C102.018 46.4752 102.307 46.838 102.342 46.8972C102.377 46.9564 102.327 47.0471 102.234 47.0392C102.141 47.0313 101.648 46.9761 101.366 46.7789C101.08 46.5817 100.891 46.1991 101.088 46.061C101.281 45.919 101.582 45.9821 101.914 46.3568Z" fill="#0055A6"/>
<path d="M101.752 45.2564C101.844 45.2327 102.219 45.1341 102.3 45.2603C102.4 45.4181 102.331 45.5877 102.037 45.7297C101.748 45.8717 101.2 45.9861 101.092 45.8323C100.988 45.6784 101.138 45.4181 101.752 45.2564Z" fill="#0055A6"/>
</svg>
